<svg width="539" height="49" viewBox="0 0 539 49" fill="none" xmlns="http://www.w3.org/2000/svg">
    <mask id="mask0_6_780" style="mask-type:luminance" maskUnits="userSpaceOnUse" x="0" y="0" width="539" height="49">
        <path d="M526.79 48.11H3.43009C1.20009 48.11 -0.289899 46.2999 0.100101 44.0699L7.02008 4.81006C7.41008 2.58006 9.54008 0.77002 11.7701 0.77002H535.13C537.36 0.77002 538.85 2.58006 538.46 4.81006L531.54 44.0699C531.15 46.2999 529.02 48.11 526.79 48.11Z" fill="white"/>
    </mask>
    <g mask="url(#mask0_6_780)">
        <path d="M526.79 48.11H3.43009C1.20009 48.11 -0.289899 46.2999 0.100101 44.0699L7.02008 4.81006C7.41008 2.58006 9.54008 0.77002 11.7701 0.77002H535.13C537.36 0.77002 538.85 2.58006 538.46 4.81006L531.54 44.0699C531.15 46.2999 529.02 48.11 526.79 48.11Z" fill="url(#paint0_linear_6_780)"/>
        <path style="mix-blend-mode:screen" d="M600.92 -18.3101C600.93 95.5299 411.93 187.83 178.8 187.82C-54.3398 187.82 -243.33 95.4901 -243.32 -18.33C-243.32 -132.13 -54.3398 -224.44 178.8 -224.48C411.93 -224.43 600.93 -132.15 600.92 -18.3101Z" fill="url(#paint1_radial_6_780)"/>
        <path style="mix-blend-mode:color-dodge" d="M445.58 -18.3199C445.58 53.6501 326.14 111.97 178.8 111.99C31.4502 111.99 -87.9998 53.6199 -87.9998 -18.3101C-88.0098 -90.2801 31.4402 -148.58 178.79 -148.61C326.14 -148.61 445.58 -90.2599 445.58 -18.3199Z" fill="url(#paint2_radial_6_780)"/>
        <path style="mix-blend-mode:screen" d="M600.92 -18.3101C600.92 5.63994 411.93 25.09 178.8 25.09C-54.3398 25.09 -243.33 5.63004 -243.32 -18.33C-243.32 -42.27 -54.3398 -61.71 178.8 -61.73C411.94 -61.73 600.92 -42.2701 600.92 -18.3101Z" fill="url(#paint3_radial_6_780)"/>
        <path style="mix-blend-mode:color-dodge" d="M445.58 -18.3199C445.59 -3.12992 326.15 9.10001 178.79 9.11001C31.4402 9.14001 -88.0098 -3.16003 -87.9998 -18.31C-88.0098 -33.45 31.4402 -45.75 178.79 -45.73C326.14 -45.73 445.58 -33.4799 445.58 -18.3199Z" fill="url(#paint4_radial_6_780)"/>
        <g style="mix-blend-mode:color-dodge">
            <path d="M417.87 -1.55005L417.97 -1.44995L469.95 50.26L531.85 50.1L554.27 21.59L608.53 20.72L608.54 21.41L554.61 22.26L532.18 50.78H532.02L469.67 50.95L469.57 50.85L417.59 -0.859985L314.97 -0.589966L296.66 17.8199H296.51L236.27 17.98L207.65 46.76H207.5L87.4602 47.08V46.39L207.36 46.08L235.99 17.3H236.13L296.37 17.14L314.69 -1.27002H314.83L417.87 -1.55005Z" fill="#8E8E8E"/>
            <path d="M87.5302 45.1899C86.6802 45.1899 85.9902 45.88 85.9902 46.74C85.9902 47.59 86.6803 48.28 87.5403 48.28C88.3903 48.28 89.0802 47.59 89.0802 46.73C89.0802 45.87 88.3902 45.1899 87.5302 45.1899Z" fill="#8E8E8E"/>
        </g>
        <g style="mix-blend-mode:color-dodge">
            <path d="M266.5 -24.1L266.6 -24L340.81 49.8199L387.51 49.7L411.27 25.8101H411.41L507.89 25.5601V26.24L411.56 26.5L387.8 50.38H387.66L340.53 50.51L340.43 50.41L266.22 -23.41L169.23 -23.16L133.92 12.34H133.78L29.6901 12.62L-3.46986 45.96H-3.60985L-96.6099 46.2V45.52L-3.74986 45.27L29.4101 11.9301H29.5501L133.63 11.66L168.94 -23.84H169.09L266.5 -24.1Z" fill="#8E8E8E"/>
            <path d="M507.81 24.36C508.66 24.36 509.35 25.05 509.36 25.9C509.36 26.75 508.67 27.44 507.82 27.45C506.97 27.45 506.28 26.76 506.27 25.91C506.27 25.06 506.96 24.37 507.81 24.36Z" fill="#8E8E8E"/>
        </g>
        <g style="mix-blend-mode:color-dodge">
            <path d="M175.2 -30.62L175.3 -30.52L204.9 -1.07996L267.29 -1.25L267.39 -1.15002L293.57 24.9L367.46 24.7V25.39L293.29 25.58L293.19 25.48L267.01 -0.560059L204.62 -0.400024L204.52 -0.5L174.92 -29.9399L83.7201 -29.7L51.9501 2.22998H51.8101L-72.6799 2.56006V1.88L51.6701 1.55005L83.4301 -30.38H83.58L175.2 -30.62Z" fill="#8E8E8E"/>
            <path d="M367.38 23.5C368.23 23.5 368.92 24.19 368.93 25.04C368.93 25.89 368.24 26.58 367.39 26.59C366.54 26.59 365.85 25.9 365.84 25.05C365.84 24.2 366.53 23.51 367.38 23.5Z" fill="#8E8E8E"/>
        </g>
    </g>
    <defs>
        <linearGradient id="paint0_linear_6_780" x1="0.0401004" y1="24.44" x2="538.52" y2="24.44" gradientUnits="userSpaceOnUse">
            <stop offset="0.03" stop-color="#00002C"/>
            <stop offset="0.25" stop-color="#264487"/>
            <stop offset="0.36" stop-color="#0162AB"/>
            <stop offset="0.43" stop-color="#0466AD" stop-opacity="0.9216"/>
            <stop offset="0.52" stop-color="#0D71B6" stop-opacity="0.7056"/>
            <stop offset="0.64" stop-color="#1C85C3" stop-opacity="0.4225"/>
            <stop offset="0.77" stop-color="#309FD6" stop-opacity="0.1444"/>
            <stop offset="0.91" stop-color="#4BC1EE" stop-opacity="0.01"/>
            <stop offset="0.93" stop-color="#4EC5F1" stop-opacity="0"/>
        </linearGradient>
        <radialGradient id="paint1_radial_6_780" cx="0" cy="0" r="1" gradientUnits="userSpaceOnUse" gradientTransform="translate(171.033 -1.18081) scale(421.778 205.643)">
            <stop offset="0.02" stop-color="#00344B"/>
            <stop offset="0.15" stop-color="#002433"/>
            <stop offset="0.32" stop-color="#00141D"/>
            <stop offset="0.51" stop-color="#00080C"/>
            <stop offset="0.72" stop-color="#000203"/>
            <stop offset="0.99"/>
        </radialGradient>
        <radialGradient id="paint2_radial_6_780" cx="0" cy="0" r="1" gradientUnits="userSpaceOnUse" gradientTransform="translate(171.033 -1.16119) scale(266.606 129.987)">
            <stop offset="0.05" stop-color="#4B4B4B"/>
            <stop offset="0.08" stop-color="#434648"/>
            <stop offset="0.12" stop-color="#2D3B41"/>
            <stop offset="0.17" stop-color="#0A2836"/>
            <stop offset="0.18" stop-color="#002333"/>
            <stop offset="0.34" stop-color="#00131D"/>
            <stop offset="0.53" stop-color="#00080C"/>
            <stop offset="0.73" stop-color="#000203"/>
            <stop offset="1"/>
        </radialGradient>
        <radialGradient id="paint3_radial_6_780" cx="0" cy="0" r="1" gradientUnits="userSpaceOnUse" gradientTransform="translate(171.033 106.529) scale(421.859 43.0254)">
            <stop offset="0.31" stop-color="#00344B"/>
            <stop offset="0.41" stop-color="#002433"/>
            <stop offset="0.53" stop-color="#00141D"/>
            <stop offset="0.66" stop-color="#00080C"/>
            <stop offset="0.8" stop-color="#000203"/>
            <stop offset="0.99"/>
        </radialGradient>
        <radialGradient id="paint4_radial_6_780" cx="0" cy="0" r="1" gradientUnits="userSpaceOnUse" gradientTransform="translate(171.033 106.541) scale(266.526 27.183)">
            <stop offset="0.18" stop-color="#002333"/>
            <stop offset="0.34" stop-color="#00131D"/>
            <stop offset="0.53" stop-color="#00080C"/>
            <stop offset="0.73" stop-color="#000203"/>
            <stop offset="1"/>
        </radialGradient>
    </defs>
</svg>
