<svg viewBox="0 0 43 44" fill="none" xmlns="http://www.w3.org/2000/svg">
    <path d="M32.5098 19.6501C33.4321 19.6501 34.1798 18.9024 34.1798 17.98C34.1798 17.0577 33.4321 16.3101 32.5098 16.3101C31.5875 16.3101 30.8398 17.0577 30.8398 17.98C30.8398 18.9024 31.5875 19.6501 32.5098 19.6501Z" fill="#E81068"/>
    <path d="M36.3401 3.82001H34.17V2.15002C34.17 1.23002 33.4201 0.47998 32.5001 0.47998C31.5801 0.47998 30.8301 1.23002 30.8301 2.15002V3.82001H23.2501V2.15002C23.2501 1.23002 22.5001 0.47998 21.5801 0.47998C20.6601 0.47998 19.91 1.23002 19.91 2.15002V3.82001H12.41V2.15002C12.41 1.23002 11.6601 0.47998 10.7401 0.47998C9.82005 0.47998 9.07007 1.23002 9.07007 2.15002V3.82001H6.99005C3.32005 3.82001 0.330078 6.80998 0.330078 10.48V36.46C0.330078 40.13 3.32005 43.12 6.99005 43.12H19.73C20.65 43.12 21.4001 42.37 21.4001 41.45C21.4001 40.53 20.65 39.78 19.73 39.78H6.99005C5.15005 39.78 3.66003 38.29 3.66003 36.45V10.47C3.66003 8.62997 5.15005 7.14001 6.99005 7.14001H9.07007V8.81C9.07007 9.73 9.82005 10.48 10.7401 10.48C11.6601 10.48 12.41 9.73 12.41 8.81V7.14001H19.91V8.81C19.91 9.73 20.6601 10.48 21.5801 10.48C22.5001 10.48 23.2501 9.73 23.2501 8.81V7.14001H30.8301V8.81C30.8301 9.73 31.5801 10.48 32.5001 10.48C33.4201 10.48 34.17 9.73 34.17 8.81V7.14001H36.3401C38.1801 7.14001 39.67 8.62997 39.67 10.47V19.96C39.67 20.88 40.4201 21.63 41.3401 21.63C42.2601 21.63 43.0101 20.88 43.0101 19.96V10.47C43.0101 6.79997 40.02 3.81 36.35 3.81L36.3401 3.82001Z" fill="#E81068"/>
    <path d="M32.9198 22.97C27.3598 22.97 22.8398 27.49 22.8398 33.05C22.8398 38.61 27.3598 43.13 32.9198 43.13C38.4798 43.13 42.9998 38.61 42.9998 33.05C42.9998 27.49 38.4798 22.97 32.9198 22.97ZM32.9198 39.8C29.1998 39.8 26.1698 36.77 26.1698 33.05C26.1698 29.33 29.1998 26.3 32.9198 26.3C36.6398 26.3 39.6698 29.33 39.6698 33.05C39.6698 36.77 36.6398 39.8 32.9198 39.8Z" fill="#E81068"/>
    <path d="M35.34 31.39H34.59V29.64C34.59 28.72 33.84 27.97 32.92 27.97C32 27.97 31.25 28.72 31.25 29.64V33.05C31.25 33.97 32 34.72 32.92 34.72H35.34C36.26 34.72 37.01 33.97 37.01 33.05C37.01 32.13 36.26 31.38 35.34 31.38V31.39Z" fill="#E81068"/>
    <path d="M25.2598 19.6501C26.1821 19.6501 26.9298 18.9024 26.9298 17.98C26.9298 17.0577 26.1821 16.3101 25.2598 16.3101C24.3375 16.3101 23.5898 17.0577 23.5898 17.98C23.5898 18.9024 24.3375 19.6501 25.2598 19.6501Z" fill="#E81068"/>
    <path d="M18.0197 26.8901C18.942 26.8901 19.6896 26.1423 19.6896 25.22C19.6896 24.2977 18.942 23.55 18.0197 23.55C17.0973 23.55 16.3496 24.2977 16.3496 25.22C16.3496 26.1423 17.0973 26.8901 18.0197 26.8901Z" fill="#E81068"/>
    <path d="M10.7697 19.6501C11.692 19.6501 12.4396 18.9024 12.4396 17.98C12.4396 17.0577 11.692 16.3101 10.7697 16.3101C9.84734 16.3101 9.09961 17.0577 9.09961 17.98C9.09961 18.9024 9.84734 19.6501 10.7697 19.6501Z" fill="#E81068"/>
    <path d="M10.7697 26.8901C11.692 26.8901 12.4396 26.1423 12.4396 25.22C12.4396 24.2977 11.692 23.55 10.7697 23.55C9.84734 23.55 9.09961 24.2977 9.09961 25.22C9.09961 26.1423 9.84734 26.8901 10.7697 26.8901Z" fill="#E81068"/>
    <path d="M10.7697 34.1401C11.692 34.1401 12.4396 33.3923 12.4396 32.47C12.4396 31.5477 11.692 30.8 10.7697 30.8C9.84734 30.8 9.09961 31.5477 9.09961 32.47C9.09961 33.3923 9.84734 34.1401 10.7697 34.1401Z" fill="#E81068"/>
    <path d="M18.0197 34.1401C18.942 34.1401 19.6896 33.3923 19.6896 32.47C19.6896 31.5477 18.942 30.8 18.0197 30.8C17.0973 30.8 16.3496 31.5477 16.3496 32.47C16.3496 33.3923 17.0973 34.1401 18.0197 34.1401Z" fill="#E81068"/>
    <path d="M18.0197 19.6501C18.942 19.6501 19.6896 18.9024 19.6896 17.98C19.6896 17.0577 18.942 16.3101 18.0197 16.3101C17.0973 16.3101 16.3496 17.0577 16.3496 17.98C16.3496 18.9024 17.0973 19.6501 18.0197 19.6501Z" fill="#E81068"/>
</svg>
