<svg viewBox="0 0 642 354" fill="none" xmlns="http://www.w3.org/2000/svg">
    <mask id="mask0_2093_574" style="mask-type:luminance" maskUnits="userSpaceOnUse" x="-1" y="0" width="642" height="353">
        <path d="M627.42 0.550049H13.2299C5.84584 0.550049 -0.140137 6.536 -0.140137 13.92V339.36C-0.140137 346.744 5.84584 352.73 13.2299 352.73H627.42C634.804 352.73 640.79 346.744 640.79 339.36V13.92C640.79 6.536 634.804 0.550049 627.42 0.550049Z" fill="white"/>
    </mask>
    <g mask="url(#mask0_2093_574)">
        <path d="M640.93 -44.95H0V382.34H640.93V-44.95Z" fill="#F2F2F4"/>
        <mask id="mask1_2093_574" style="mask-type:luminance" maskUnits="userSpaceOnUse" x="0" y="-45" width="641" height="428">
            <path d="M640.93 -44.95H0V382.34H640.93V-44.95Z" fill="white"/>
        </mask>
        <g mask="url(#mask1_2093_574)">
            <g filter="url(#filter0_d_2093_574)">
                <path d="M677.72 382.54L680.37 378.73L625.09 352.09L633.75 382.54H677.72Z" fill="url(#paint0_linear_2093_574)"/>
                <path d="M633.75 382.54L625.09 352.09L586.65 382.54H633.75Z" fill="url(#paint1_linear_2093_574)"/>
                <path d="M680.37 378.73L625.09 352.09L657.19 294.16L680.37 378.73Z" fill="url(#paint2_linear_2093_574)"/>
                <path d="M682.4 159.7L619.74 157.44L642.93 192.2L682.4 160.98V159.7Z" fill="url(#paint3_linear_2093_574)"/>
                <path d="M586.65 382.54L625.09 352.09L496.69 301.11L538.03 382.54H586.65Z" fill="url(#paint4_linear_2093_574)"/>
                <path d="M682.4 159.7V154L662.54 79.8203L619.74 157.44L682.4 159.7Z" fill="url(#paint5_linear_2093_574)"/>
                <path d="M619.74 157.44L569.81 106.46L662.54 79.8203L619.74 157.44Z" fill="url(#paint6_linear_2093_574)"/>
                <path d="M569.81 106.46L523.44 62.4402L662.54 79.8202L569.81 106.46Z" fill="url(#paint7_linear_2093_574)"/>
                <path d="M662.54 79.8202L523.44 62.4402L657.19 -10.5498L662.54 79.8202Z" fill="url(#paint8_linear_2093_574)"/>
                <path d="M657.19 -10.5499L523.44 62.4401L546.63 -38.3599L657.19 -10.5499Z" fill="url(#paint9_linear_2093_574)"/>
                <path d="M642.93 192.2L619.74 157.44L503.83 174.82L642.93 192.2Z" fill="url(#paint10_linear_2093_574)"/>
                <path d="M619.74 157.46L569.81 106.48L503.83 174.84L619.74 157.46Z" fill="url(#paint11_linear_2093_574)"/>
                <path d="M682.16 264.03L657.19 294.16L568.03 255.92L682.16 264.03Z" fill="url(#paint12_linear_2093_574)"/>
                <path d="M682.16 264.03L642.93 192.2L568.03 255.92L682.16 264.03Z" fill="url(#paint13_linear_2093_574)"/>
                <path d="M657.19 294.16L625.09 352.09L568.03 255.92L657.19 294.16Z" fill="url(#paint14_linear_2093_574)"/>
                <path d="M642.93 192.2L503.83 174.82L568.03 255.92L642.93 192.2Z" fill="url(#paint15_linear_2093_574)"/>
                <path d="M498.38 271.69L456.84 269.97L446.77 180.91L498.38 271.69Z" fill="url(#paint16_linear_2093_574)"/>
                <path d="M498.38 271.69L446.77 180.91L516.41 218.12L498.38 271.69Z" fill="url(#paint17_linear_2093_574)"/>
                <path d="M625.09 352.09L496.69 301.11L568.03 255.92L625.09 352.09Z" fill="url(#paint18_linear_2093_574)"/>
                <path d="M500.45 135.69L532 110.36L491.11 106.36L481.4 127.34L500.45 135.69Z" fill="url(#paint19_linear_2093_574)"/>
                <path d="M501.2 144.86L532 110.36L500.45 135.69L501.2 144.86Z" fill="url(#paint20_linear_2093_574)"/>
                <path d="M481.4 127.34L501.2 144.86L500.45 135.69L481.4 127.34Z" fill="url(#paint21_linear_2093_574)"/>
                <path d="M507.85 52.5402L522.78 -35.5098L469.85 0.920227L507.85 52.5402Z" fill="url(#paint22_linear_2093_574)"/>
                <path d="M507.85 52.5402L452.58 -7.33984L469.85 0.920166L507.85 52.5402Z" fill="url(#paint23_linear_2093_574)"/>
                <path d="M522.78 -35.5098L452.58 -7.33978L469.85 0.920227L522.78 -35.5098Z" fill="url(#paint24_linear_2093_574)"/>
                <path d="M455.83 355.47L473.62 321.9L454.56 350.57L455.83 355.47Z" fill="url(#paint25_linear_2093_574)"/>
                <path d="M442.94 342.23L473.62 321.9L454.56 350.57L442.94 342.23Z" fill="url(#paint26_linear_2093_574)"/>
                <path d="M455.83 355.47L445.13 353.31L442.94 342.23L454.56 350.57L455.83 355.47Z" fill="url(#paint27_linear_2093_574)"/>
            </g>
            <path d="M453.19 192.08C465.81 212.92 477.93 234.23 489.39 255.74C476.76 234.89 464.65 213.59 453.19 192.08Z" fill="white"/>
            <path d="M483.92 128.4C489.48 130.67 495.01 133.02 500.52 135.42L500.28 135.45C506.88 130.11 513.54 124.83 520.3 119.68C513.81 125.16 507.22 130.52 500.58 135.81C500.46 135.9 500.51 135.93 500.34 135.84C494.84 133.42 489.37 130.94 483.93 128.39L483.92 128.4Z" fill="white"/>
            <path d="M501.07 143.49L500.17 135.65L500.67 135.61L501.07 143.49Z" fill="white"/>
            <path d="M456.14 -5.49976C460.11 -3.79976 465.78 -1.15978 469.76 0.660217C474.69 7.26022 480.71 15.4202 485.44 22.1202C487.15 24.5102 488.83 26.9402 490.49 29.3702C488.66 27.0602 486.85 24.7403 485.07 22.3903C480.11 15.9203 474.1 7.75023 469.29 1.11023C466.15 -0.329771 459.7 -3.64976 456.13 -5.49976H456.14Z" fill="white"/>
            <path d="M500.47 -20.3499L469.77 1.2301L469.34 0.610107L500.47 -20.3499Z" fill="white"/>
            <path d="M445.69 343.93C448.89 345.71 451.86 347.82 454.74 350.06C455.03 351.34 455.25 352.64 455.43 353.95C454.96 352.75 454.54 351.53 454.17 350.3L454.29 350.47C451.28 348.47 448.37 346.36 445.68 343.92L445.69 343.93Z" fill="white"/>
            <path d="M462.37 338.34L454.78 350.44L454.16 350.02L462.37 338.34Z" fill="white"/>
            <path d="M614.33 347.92C581.97 335.79 546.27 321.59 514.37 308.23C546.75 320.39 582.46 334.55 614.33 347.92Z" fill="white"/>
            <path d="M554.82 167.07C571.91 164.01 590.79 161.17 608.03 159.09C590.94 162.15 572.06 164.98 554.82 167.07Z" fill="white"/>
            <path d="M516.6 172.89C525.69 170.85 534.99 169.47 544.28 168.77C535.19 170.81 525.89 172.19 516.6 172.89Z" fill="white"/>
            <path d="M613.2 150.91C605.19 143.5 597.52 135.73 590.23 127.62C598.24 135.02 605.91 142.8 613.2 150.91Z" fill="white"/>
            <path d="M586.36 264.03C605.72 271.56 624.94 279.76 643.77 288.52C624.41 280.99 605.19 272.79 586.36 264.03Z" fill="white"/>
            <path d="M654.35 298.75C648.76 310.25 642.52 321.51 635.74 332.34C641.33 320.84 647.57 309.58 654.35 298.75Z" fill="white"/>
            <path d="M636.9 197.33C623.13 209.93 608.83 222.1 594.19 233.67C607.96 221.07 622.26 208.9 636.9 197.33Z" fill="white"/>
            <path d="M665.44 159.09C651.13 159.26 636.74 158.74 622.47 157.54C636.78 157.37 651.18 157.89 665.44 159.09Z" fill="white"/>
            <path d="M639.53 187.11C632.39 177.63 625.75 167.68 619.74 157.44C626.89 166.92 633.52 176.87 639.53 187.11Z" fill="white"/>
            <path d="M542.27 52.1602C568.44 37.1202 597.9 21.0602 624.71 7.17017C598.51 22.2102 569.08 38.2902 542.27 52.1602Z" fill="white"/>
            <path opacity="0.53" d="M469.74 223.3L447.84 184.13L452.37 225.15L469.74 223.3Z" fill="url(#paint28_linear_2093_574)"/>
            <path opacity="0.53" d="M500.39 135.1L513.48 124.59L488.29 129.8L500.39 135.1Z" fill="url(#paint29_linear_2093_574)"/>
            <path opacity="0.53" d="M500.68 141.21L500.08 136.05L492.11 132.48L500.68 141.21Z" fill="url(#paint30_linear_2093_574)"/>
            <path opacity="0.53" d="M506.87 174.94L550.28 169.09L550.99 180.34L506.87 174.94Z" fill="url(#paint31_linear_2093_574)"/>
            <path opacity="0.53" d="M618.68 157.11L580.68 119.09L566.86 164.68L618.68 157.11Z" fill="url(#paint32_linear_2093_574)"/>
            <path opacity="0.34" d="M619.76 156.94L642.5 114.68L603.57 139.44L619.76 156.94Z" fill="url(#paint33_linear_2093_574)"/>
            <path opacity="0.71" d="M541.26 220.66L568.12 255.19L610.14 218.07L541.26 220.66Z" fill="url(#paint34_linear_2093_574)"/>
            <path opacity="0.5" d="M639.76 322.97L656.55 294.59L625.92 282.07L639.76 322.97Z" fill="url(#paint35_linear_2093_574)"/>
            <path opacity="0.5" d="M522.19 350.39L498.03 301.88L537.51 318.61L522.19 350.39Z" fill="url(#paint36_linear_2093_574)"/>
            <path d="M526.23 61.5803L591.31 27.3203L592.51 70.5203L526.23 61.5803Z" fill="url(#paint37_linear_2093_574)"/>
            <path d="M484.81 20.36L470.86 1.39008L491.92 -13.6699L484.81 20.36Z" fill="url(#paint38_linear_2093_574)"/>
            <path opacity="0.49" d="M536.87 8.87018L547.22 -37.3298L587.86 -26.5298L536.87 8.87018Z" fill="url(#paint39_linear_2093_574)"/>
            <g filter="url(#filter1_d_2093_574)">
                <path d="M-26.51 -41.2397L28.77 -14.5898L-3.32999 43.3403L-26.51 -41.2397Z" fill="url(#paint40_linear_2093_574)"/>
                <path d="M-28.54 176.52L10.94 145.3L-28.3 73.4702L-28.54 87.6403V176.52Z" fill="url(#paint41_linear_2093_574)"/>
                <path d="M-28.54 177.79L34.12 180.06L10.94 145.3L-28.54 176.52V177.79Z" fill="url(#paint42_linear_2093_574)"/>
                <path d="M67.21 -45.0398L28.77 -14.5898L157.17 36.3902L115.83 -45.0398H67.21Z" fill="url(#paint43_linear_2093_574)"/>
                <path d="M-28.54 177.79V183.5L-8.68002 257.68L34.12 180.06L-28.54 177.79Z" fill="url(#paint44_linear_2093_574)"/>
                <path d="M34.1201 180.06L84.05 231.03L-8.67993 257.68L34.1201 180.06Z" fill="url(#paint45_linear_2093_574)"/>
                <path d="M84.05 231.03L130.42 275.06L-8.67993 257.68L84.05 231.03Z" fill="url(#paint46_linear_2093_574)"/>
                <path d="M-8.67993 257.68L130.42 275.06L-3.32993 348.05L-8.67993 257.68Z" fill="url(#paint47_linear_2093_574)"/>
                <path d="M-3.33008 348.05L130.42 275.06L107.24 375.86L-3.33008 348.05Z" fill="url(#paint48_linear_2093_574)"/>
                <path d="M101.06 382.54L107.24 375.86L-3.33008 348.05L33.5599 382.54H101.06Z" fill="url(#paint49_linear_2093_574)"/>
                <path d="M-3.32999 348.05L-21.49 382.54H-7.41H8.70001H33.56L-3.32999 348.05Z" fill="url(#paint50_linear_2093_574)"/>
                <path d="M10.9399 145.3L34.1199 180.06L150.04 162.68L10.9399 145.3Z" fill="url(#paint51_linear_2093_574)"/>
                <path d="M34.12 180.04L84.05 231.02L150.04 162.66L34.12 180.04Z" fill="url(#paint52_linear_2093_574)"/>
                <path d="M-28.3 73.47L-3.33005 43.3401L85.8399 81.5801L-28.3 73.47Z" fill="url(#paint53_linear_2093_574)"/>
                <path d="M-28.3 73.4702L10.9399 145.3L85.8399 81.5803L-28.3 73.4702Z" fill="url(#paint54_linear_2093_574)"/>
                <path d="M-3.33008 43.3402L28.7699 -14.5898L85.8399 81.5802L-3.33008 43.3402Z" fill="url(#paint55_linear_2093_574)"/>
                <path d="M10.9399 145.3L150.04 162.68L85.8399 81.5801L10.9399 145.3Z" fill="url(#paint56_linear_2093_574)"/>
                <path d="M168.09 124.81L144.29 137.29L109.84 90.72L168.09 124.81Z" fill="url(#paint57_linear_2093_574)"/>
                <path d="M168.09 124.81L109.84 90.72L160.85 89L168.09 124.81Z" fill="url(#paint58_linear_2093_574)"/>
                <path d="M28.77 -14.5898L157.17 36.3902L85.84 81.5802L28.77 -14.5898Z" fill="url(#paint59_linear_2093_574)"/>
                <path d="M171.48 379.6L132.83 319.91L118.54 390.67L153.48 411.41L171.48 379.6Z" fill="url(#paint60_linear_2093_574)"/>
                <path d="M187.66 379.92L132.83 319.91L171.48 379.6L187.66 379.92Z" fill="url(#paint61_linear_2093_574)"/>
                <path d="M110.14 230.63L132.67 257.36L135.17 232.33L110.14 230.63Z" fill="url(#paint62_linear_2093_574)"/>
                <path d="M110.14 230.63L142.01 229.26L135.17 232.33L110.14 230.63Z" fill="url(#paint63_linear_2093_574)"/>
                <path d="M132.67 257.36L142.01 229.26L135.17 232.33L132.67 257.36Z" fill="url(#paint64_linear_2093_574)"/>
                <path d="M134.52 -44.6199L179.3 21.9001L144.91 -42.1099L134.52 -44.6199Z" fill="url(#paint65_linear_2093_574)"/>
                <path d="M171.99 -55.4399L179.3 21.9001L144.91 -42.1099L171.99 -55.4399Z" fill="url(#paint66_linear_2093_574)"/>
                <path d="M117.04 94.8801C130.33 102.17 145.02 110.77 157.89 118.79C144.59 111.5 129.91 102.9 117.04 94.8801Z" fill="white"/>
                <path d="M155.78 407.19C160.44 398.43 166.15 388.08 171.02 379.43L171.03 379.86C162.87 367.36 154.83 354.78 147.04 342.05C155.47 354.37 163.66 366.86 171.72 379.42L171.86 379.63L171.74 379.84C166.83 388.46 160.89 398.69 155.79 407.19H155.78Z" fill="white"/>
                <path d="M140.55 229.86C138.8 230.72 137.03 231.55 135.26 232.37C130.65 232.1 126.04 231.77 121.44 231.31C126.05 231.47 130.65 231.77 135.24 232.12C136.71 231.44 138.84 230.57 140.54 229.86H140.55Z" fill="white"/>
                <path d="M133.79 246.86L135.1 232.23L135.39 232.26L133.79 246.86Z" fill="white"/>
                <path d="M39.53 -10.4199C71.89 1.71008 107.59 15.9101 139.49 29.2701C107.11 17.1101 71.4 2.95008 39.53 -10.4199Z" fill="white"/>
                <path d="M99.04 170.43C81.95 173.49 63.07 176.33 45.83 178.41C62.92 175.35 81.8 172.52 99.04 170.43Z" fill="white"/>
                <path d="M137.26 164.61C128.17 166.65 118.87 168.03 109.58 168.73C118.67 166.69 127.97 165.31 137.26 164.61Z" fill="white"/>
                <path d="M40.6599 186.59C48.6699 194 56.3399 201.77 63.6299 209.88C55.6199 202.48 47.9499 194.7 40.6599 186.59Z" fill="white"/>
                <path d="M67.5 73.47C48.14 65.94 28.92 57.74 10.09 48.98C29.45 56.51 48.67 64.71 67.5 73.47Z" fill="white"/>
                <path d="M-0.48999 38.7401C5.10001 27.2501 11.34 15.9801 18.12 5.15015C12.53 16.6501 6.29001 27.9101 -0.48999 38.7401Z" fill="white"/>
                <path d="M16.96 140.17C30.73 127.57 45.03 115.4 59.67 103.83C45.9 116.43 31.6 128.6 16.96 140.17Z" fill="white"/>
                <path d="M-11.5801 178.41C2.72992 178.24 17.1199 178.76 31.3899 179.96C17.0799 180.13 2.67992 179.61 -11.5801 178.41Z" fill="white"/>
                <path d="M14.33 150.38C21.47 159.86 28.11 169.81 34.12 180.05C26.97 170.57 20.34 160.62 14.33 150.38Z" fill="white"/>
                <path d="M111.59 285.34C85.4199 300.38 55.9599 316.44 29.1499 330.33C55.3499 315.29 84.7799 299.21 111.59 285.34Z" fill="white"/>
                <path d="M71.2 366.8C51.34 362.5 31.51 357.51 11.98 351.91C31.84 356.21 51.67 361.2 71.2 366.8Z" fill="white"/>
                <path d="M-19.6699 89.2603C-8.89992 107.57 1.34008 126.33 10.9301 145.29C0.160084 126.97 -10.0899 108.21 -19.6699 89.2603Z" fill="white"/>
                <path opacity="0.53" d="M136.41 107L111.48 92.1702L127.29 113.66L136.41 107Z" fill="url(#paint67_linear_2093_574)"/>
                <path opacity="0.53" d="M147 162.56L103.58 168.41L102.88 157.15L147 162.56Z" fill="url(#paint68_linear_2093_574)"/>
                <path opacity="0.53" d="M35.1799 180.39L73.1799 218.41L87.0099 172.82L35.1799 180.39Z" fill="url(#paint69_linear_2093_574)"/>
                <path opacity="0.34" d="M34.1 180.56L11.37 222.82L50.29 198.06L34.1 180.56Z" fill="url(#paint70_linear_2093_574)"/>
                <path opacity="0.71" d="M112.6 116.84L85.74 82.3101L43.72 119.43L112.6 116.84Z" fill="url(#paint71_linear_2093_574)"/>
                <path opacity="0.5" d="M14.1001 14.5303L-2.68994 42.9102L27.9401 55.4302L14.1001 14.5303Z" fill="url(#paint72_linear_2093_574)"/>
                <path opacity="0.5" d="M131.67 -12.8899L155.83 35.6201L116.35 18.8801L131.67 -12.8899Z" fill="url(#paint73_linear_2093_574)"/>
                <path d="M127.63 275.92L62.55 310.18L61.35 266.98L127.63 275.92Z" fill="url(#paint74_linear_2093_574)"/>
                <path d="M125.58 231.89L134.77 232.51L133.95 242.62L125.58 231.89Z" fill="url(#paint75_linear_2093_574)"/>
                <path d="M120.16 217.91L179.91 223.87L153.04 190.04L120.16 217.91Z" fill="url(#paint76_linear_2093_574)"/>
                <path d="M120.16 217.91L157.78 178.08L153.04 190.04L120.16 217.91Z" fill="url(#paint77_linear_2093_574)"/>
                <path d="M179.91 223.87L157.78 178.08L153.04 190.04L179.91 223.87Z" fill="url(#paint78_linear_2093_574)"/>
                <path d="M156.71 180.55C155.86 182.9 154.12 187.6 153.22 189.92C148.75 193.86 144.14 197.68 139.53 201.47C138.01 202.73 136.45 203.95 134.9 205.19C136.38 203.87 137.83 202.53 139.33 201.23C143.67 197.44 148.64 193.14 152.82 189.75C153.76 187.45 155.71 182.82 156.71 180.53V180.55Z" fill="white"/>
                <path d="M168.72 209.6L152.83 190L153.22 189.69L168.72 209.6Z" fill="white"/>
                <path d="M140.69 200.97L152.77 190.74L163.84 204.17L140.69 200.97Z" fill="url(#paint79_linear_2093_574)"/>
                <path opacity="0.49" d="M117 328.63L106.65 374.83L66 364.03L117 328.63Z" fill="url(#paint80_linear_2093_574)"/>
                <path d="M-26.8601 73.9001L-9.23013 105.19L1.82986 76.3701L-26.8601 73.9001Z" fill="url(#paint81_linear_2093_574)"/>
            </g>
        </g>
    </g>
<!--    <path d="M314.16 197.35C309.36 196.06 305.45 194.4 302.43 192.36L309.63 178.69C312.89 180.78 316.37 182.37 320.06 183.45C323.75 184.53 327.45 185.07 331.14 185.07C334.83 185.07 337.37 184.56 339.31 183.55C341.25 182.53 342.22 181.13 342.22 179.35C342.22 177.81 341.34 176.61 339.59 175.75C337.83 174.89 335.11 173.97 331.42 172.98C327.23 171.87 323.76 170.75 320.99 169.61C318.22 168.47 315.83 166.73 313.83 164.39C311.83 162.05 310.83 158.97 310.83 155.16C310.83 150.54 312.09 146.5 314.62 143.02C317.14 139.54 320.74 136.85 325.42 134.94C330.1 133.03 335.58 132.08 341.86 132.08C346.48 132.08 350.78 132.56 354.79 133.51C358.79 134.47 362.24 135.83 365.13 137.62L358.48 151.19C355.96 149.59 353.17 148.37 350.12 147.54C347.07 146.71 343.95 146.29 340.75 146.29C337.12 146.29 334.27 146.88 332.21 148.04C330.15 149.21 329.12 150.72 329.12 152.56C329.12 154.16 330.01 155.39 331.8 156.25C333.58 157.11 336.35 158.04 340.11 159.02C344.3 160.07 347.76 161.14 350.5 162.25C353.24 163.36 355.59 165.05 357.56 167.33C359.53 169.61 360.51 172.59 360.51 176.29C360.51 180.85 359.23 184.86 356.68 188.34C354.12 191.82 350.49 194.51 345.78 196.42C341.07 198.33 335.61 199.28 329.39 199.28C324.04 199.28 318.96 198.63 314.15 197.34L314.16 197.35Z" fill="url(#paint82_linear_2093_574)"/>-->
<!--    <path d="M340.83 104.27L300.3 168.91H282.29L267.61 104.27H286.35L295.59 146.29L322 104.27H340.83Z" fill="url(#paint83_linear_2093_574)"/>-->
    <path d="M604.94 352.46H602.14L641.06 305.8V264.26L525.72 352.46H641.06V319.9L604.94 352.46Z" fill="#0580C3"/>
    <path d="M641.06 216.61L580.95 352.46H579.57L641.06 202.23V216.61Z" fill="black"/>
    <path d="M480.39 352.46H487.72L641.06 260.33V259.14L480.39 352.46Z" fill="#0580C3"/>
    <path d="M587.35 352.46H602.14L641.06 305.8V250.32L587.35 352.46ZM641.06 352.46V319.9L604.93 352.46H641.06Z" fill="black"/>
    <path d="M604.94 352.46H602.14L641.06 305.8V287.31L595.84 352.46H641.06V319.9L604.94 352.46Z" fill="#0580C3"/>
    <path d="M42.46 0.630127L0.0100098 51.4501V96.6901L125.83 0.630127H42.47H42.46ZM0 0.630127V36.0901L39.4 0.630127H0Z" fill="#EB1068"/>
    <path d="M0 148.58L65.58 0.630127H67.08L0 164.25V148.58Z" fill="black"/>
    <path d="M175.26 0.630127H167.26L0 100.96V102.27L175.26 0.630127Z" fill="#EB1068"/>
    <path d="M0 0.630127V36.0901L39.4 0.630127H0ZM42.46 0.630127L0.0100098 51.4501V111.87L58.6 0.630127H42.47H42.46Z" fill="black"/>
    <path d="M0 0.630127V36.0901L39.4 0.630127H0ZM42.46 0.630127L0.0100098 51.4501V71.5901L49.34 0.630127H42.46Z" fill="#EB1068"/>
    <defs>
        <filter id="filter0_d_2093_574" x="427.94" y="-50.0398" width="259.46" height="447.58" filterUnits="userSpaceOnUse" color-interpolation-filters="sRGB">
            <feFlood flood-opacity="0" result="BackgroundImageFix"/>
            <feColorMatrix in="SourceAlpha" type="matrix" values="0 0 0 0 0 0 0 0 0 0 0 0 0 0 0 0 0 0 127 0" result="hardAlpha"/>
            <feOffset dx="-5" dy="5"/>
            <feGaussianBlur stdDeviation="5"/>
            <feColorMatrix type="matrix" values="0 0 0 0 0 0 0 0 0 0 0 0 0 0 0 0 0 0 0.15 0"/>
            <feBlend mode="normal" in2="BackgroundImageFix" result="effect1_dropShadow_2093_574"/>
            <feBlend mode="normal" in="SourceGraphic" in2="effect1_dropShadow_2093_574" result="shape"/>
        </filter>
        <filter id="filter1_d_2093_574" x="-33.54" y="-67.3899" width="236.2" height="493.8" filterUnits="userSpaceOnUse" color-interpolation-filters="sRGB">
            <feFlood flood-opacity="0" result="BackgroundImageFix"/>
            <feColorMatrix in="SourceAlpha" type="matrix" values="0 0 0 0 0 0 0 0 0 0 0 0 0 0 0 0 0 0 127 0" result="hardAlpha"/>
            <feOffset dx="5" dy="5"/>
            <feGaussianBlur stdDeviation="5"/>
            <feColorMatrix type="matrix" values="0 0 0 0 0 0 0 0 0 0 0 0 0 0 0 0 0 0 0.15 0"/>
            <feBlend mode="normal" in2="BackgroundImageFix" result="effect1_dropShadow_2093_574"/>
            <feBlend mode="normal" in="SourceGraphic" in2="effect1_dropShadow_2093_574" result="shape"/>
        </filter>
        <linearGradient id="paint0_linear_2093_574" x1="683.38" y1="435.75" x2="603.573" y2="397.688" gradientUnits="userSpaceOnUse">
            <stop stop-color="white"/>
            <stop offset="1" stop-color="#E6E7E8"/>
        </linearGradient>
        <linearGradient id="paint1_linear_2093_574" x1="608.11" y1="386.64" x2="625.49" y2="352.53" gradientUnits="userSpaceOnUse">
            <stop stop-color="white"/>
            <stop offset="1" stop-color="#E6E7E8"/>
        </linearGradient>
        <linearGradient id="paint2_linear_2093_574" x1="649.44" y1="350.26" x2="639.79" y2="305.85" gradientUnits="userSpaceOnUse">
            <stop stop-color="white"/>
            <stop offset="1" stop-color="#E6E7E8"/>
        </linearGradient>
        <linearGradient id="paint3_linear_2093_574" x1="652.33" y1="150.36" x2="647.59" y2="183.59" gradientUnits="userSpaceOnUse">
            <stop stop-color="white"/>
            <stop offset="1" stop-color="#E6E7E8"/>
        </linearGradient>
        <linearGradient id="paint4_linear_2093_574" x1="497.95" y1="335.57" x2="592.56" y2="366.04" gradientUnits="userSpaceOnUse">
            <stop stop-color="white"/>
            <stop offset="1" stop-color="#E6E7E8"/>
        </linearGradient>
        <linearGradient id="paint5_linear_2093_574" x1="684.94" y1="107.01" x2="630.73" y2="162.41" gradientUnits="userSpaceOnUse">
            <stop stop-color="white"/>
            <stop offset="1" stop-color="#E6E7E8"/>
        </linearGradient>
        <linearGradient id="paint6_linear_2093_574" x1="645.67" y1="119.87" x2="600.36" y2="107.41" gradientUnits="userSpaceOnUse">
            <stop stop-color="white"/>
            <stop offset="1" stop-color="#E6E7E8"/>
        </linearGradient>
        <linearGradient id="paint7_linear_2093_574" x1="663.92" y1="116.35" x2="615.743" y2="17.4609" gradientUnits="userSpaceOnUse">
            <stop stop-color="white"/>
            <stop offset="1" stop-color="#E6E7E8"/>
        </linearGradient>
        <linearGradient id="paint8_linear_2093_574" x1="592.25" y1="30.3302" x2="615.42" y2="82.9902" gradientUnits="userSpaceOnUse">
            <stop stop-color="white"/>
            <stop offset="1" stop-color="#E6E7E8"/>
        </linearGradient>
        <linearGradient id="paint9_linear_2093_574" x1="544.4" y1="-15.9699" x2="594.78" y2="30.0101" gradientUnits="userSpaceOnUse">
            <stop stop-color="white"/>
            <stop offset="1" stop-color="#E6E7E8"/>
        </linearGradient>
        <linearGradient id="paint10_linear_2093_574" x1="575.72" y1="179.11" x2="588.71" y2="154.76" gradientUnits="userSpaceOnUse">
            <stop stop-color="white"/>
            <stop offset="1" stop-color="#E6E7E8"/>
        </linearGradient>
        <linearGradient id="paint11_linear_2093_574" x1="601.63" y1="130.46" x2="515.09" y2="149.51" gradientUnits="userSpaceOnUse">
            <stop stop-color="white"/>
            <stop offset="1" stop-color="#E6E7E8"/>
        </linearGradient>
        <linearGradient id="paint12_linear_2093_574" x1="578.19" y1="273.06" x2="650.97" y2="277.24" gradientUnits="userSpaceOnUse">
            <stop stop-color="white"/>
            <stop offset="1" stop-color="#E6E7E8"/>
        </linearGradient>
        <linearGradient id="paint13_linear_2093_574" x1="661.88" y1="277.65" x2="607.07" y2="225.58" gradientUnits="userSpaceOnUse">
            <stop stop-color="white"/>
            <stop offset="1" stop-color="#E6E7E8"/>
        </linearGradient>
        <linearGradient id="paint14_linear_2093_574" x1="629.2" y1="267.82" x2="583.72" y2="318.23" gradientUnits="userSpaceOnUse">
            <stop stop-color="white"/>
            <stop offset="1" stop-color="#E6E7E8"/>
        </linearGradient>
        <linearGradient id="paint15_linear_2093_574" x1="606.13" y1="231.79" x2="556.12" y2="158.07" gradientUnits="userSpaceOnUse">
            <stop stop-color="white"/>
            <stop offset="1" stop-color="#E6E7E8"/>
        </linearGradient>
        <linearGradient id="paint16_linear_2093_574" x1="471.426" y1="228.919" x2="458.575" y2="256.167" gradientUnits="userSpaceOnUse">
            <stop stop-color="white"/>
            <stop offset="1" stop-color="#E6E7E8"/>
        </linearGradient>
        <linearGradient id="paint17_linear_2093_574" x1="517.643" y1="224.467" x2="459.03" y2="227.04" gradientUnits="userSpaceOnUse">
            <stop stop-color="white"/>
            <stop offset="1" stop-color="#E6E7E8"/>
        </linearGradient>
        <linearGradient id="paint18_linear_2093_574" x1="562.76" y1="315.84" x2="574.34" y2="249.12" gradientUnits="userSpaceOnUse">
            <stop stop-color="white"/>
            <stop offset="1" stop-color="#E6E7E8"/>
        </linearGradient>
        <linearGradient id="paint19_linear_2093_574" x1="508.07" y1="132.59" x2="506.07" y2="112.55" gradientUnits="userSpaceOnUse">
            <stop stop-color="white"/>
            <stop offset="1" stop-color="#E6E7E8"/>
        </linearGradient>
        <linearGradient id="paint20_linear_2093_574" x1="531.55" y1="115.25" x2="493.48" y2="146.26" gradientUnits="userSpaceOnUse">
            <stop stop-color="white"/>
            <stop offset="1" stop-color="#E6E7E8"/>
        </linearGradient>
        <linearGradient id="paint21_linear_2093_574" x1="499.35" y1="134.27" x2="490.07" y2="136.38" gradientUnits="userSpaceOnUse">
            <stop stop-color="white"/>
            <stop offset="1" stop-color="#E6E7E8"/>
        </linearGradient>
        <linearGradient id="paint22_linear_2093_574" x1="484.04" y1="31.9302" x2="516.8" y2="-3.53981" gradientUnits="userSpaceOnUse">
            <stop stop-color="white"/>
            <stop offset="1" stop-color="#E6E7E8"/>
        </linearGradient>
        <linearGradient id="paint23_linear_2093_574" x1="507.85" y1="22.6002" x2="452.58" y2="22.6002" gradientUnits="userSpaceOnUse">
            <stop stop-color="white"/>
            <stop offset="1" stop-color="#E6E7E8"/>
        </linearGradient>
        <linearGradient id="paint24_linear_2093_574" x1="490.56" y1="-26.3098" x2="477.19" y2="-3.62977" gradientUnits="userSpaceOnUse">
            <stop stop-color="white"/>
            <stop offset="1" stop-color="#E6E7E8"/>
        </linearGradient>
        <linearGradient id="paint25_linear_2093_574" x1="473.62" y1="338.68" x2="454.56" y2="338.68" gradientUnits="userSpaceOnUse">
            <stop stop-color="white"/>
            <stop offset="1" stop-color="#E6E7E8"/>
        </linearGradient>
        <linearGradient id="paint26_linear_2093_574" x1="473.62" y1="336.23" x2="442.94" y2="336.23" gradientUnits="userSpaceOnUse">
            <stop stop-color="white"/>
            <stop offset="1" stop-color="#E6E7E8"/>
        </linearGradient>
        <linearGradient id="paint27_linear_2093_574" x1="455.83" y1="348.85" x2="442.94" y2="348.85" gradientUnits="userSpaceOnUse">
            <stop stop-color="white"/>
            <stop offset="1" stop-color="#E6E7E8"/>
        </linearGradient>
        <linearGradient id="paint28_linear_2093_574" x1="452.53" y1="175.77" x2="460.76" y2="222.56" gradientUnits="userSpaceOnUse">
            <stop stop-color="white"/>
            <stop offset="1" stop-color="white" stop-opacity="0"/>
        </linearGradient>
        <linearGradient id="paint29_linear_2093_574" x1="502.06" y1="135.38" x2="501.25" y2="129.75" gradientUnits="userSpaceOnUse">
            <stop stop-color="white"/>
            <stop offset="1" stop-color="white" stop-opacity="0"/>
        </linearGradient>
        <linearGradient id="paint30_linear_2093_574" x1="500.1" y1="134.54" x2="497.18" y2="136.35" gradientUnits="userSpaceOnUse">
            <stop stop-color="white"/>
            <stop offset="1" stop-color="white" stop-opacity="0"/>
        </linearGradient>
        <linearGradient id="paint31_linear_2093_574" x1="500.2" y1="178.89" x2="543.25" y2="175.33" gradientUnits="userSpaceOnUse">
            <stop stop-color="white"/>
            <stop offset="1" stop-color="white" stop-opacity="0"/>
        </linearGradient>
        <linearGradient id="paint32_linear_2093_574" x1="659.98" y1="161.96" x2="570.55" y2="141.14" gradientUnits="userSpaceOnUse">
            <stop stop-color="white"/>
            <stop offset="1" stop-color="white" stop-opacity="0"/>
        </linearGradient>
        <linearGradient id="paint33_linear_2093_574" x1="637.68" y1="142.85" x2="625.32" y2="129.57" gradientUnits="userSpaceOnUse">
            <stop stop-color="white"/>
            <stop offset="1" stop-color="white" stop-opacity="0"/>
        </linearGradient>
        <linearGradient id="paint34_linear_2093_574" x1="573.71" y1="285.83" x2="575.47" y2="227.08" gradientUnits="userSpaceOnUse">
            <stop stop-color="white"/>
            <stop offset="1" stop-color="white" stop-opacity="0"/>
        </linearGradient>
        <linearGradient id="paint35_linear_2093_574" x1="670.42" y1="292.41" x2="635.62" y2="301.77" gradientUnits="userSpaceOnUse">
            <stop stop-color="white"/>
            <stop offset="1" stop-color="white" stop-opacity="0"/>
        </linearGradient>
        <linearGradient id="paint36_linear_2093_574" x1="487.91" y1="299.81" x2="525.65" y2="331.02" gradientUnits="userSpaceOnUse">
            <stop stop-color="white"/>
            <stop offset="1" stop-color="white" stop-opacity="0"/>
        </linearGradient>
        <linearGradient id="paint37_linear_2093_574" x1="461.24" y1="55.4003" x2="564.31" y2="50.2903" gradientUnits="userSpaceOnUse">
            <stop stop-color="white"/>
            <stop offset="1" stop-color="white" stop-opacity="0"/>
        </linearGradient>
        <linearGradient id="paint38_linear_2093_574" x1="438.46" y1="-2.55993" x2="482.13" y2="2.60007" gradientUnits="userSpaceOnUse">
            <stop stop-color="white"/>
            <stop offset="1" stop-color="white" stop-opacity="0"/>
        </linearGradient>
        <linearGradient id="paint39_linear_2093_574" x1="541.44" y1="-41.3098" x2="560.19" y2="-12.2098" gradientUnits="userSpaceOnUse">
            <stop stop-color="white"/>
            <stop offset="1" stop-color="white" stop-opacity="0"/>
        </linearGradient>
        <linearGradient id="paint40_linear_2093_574" x1="4.42999" y1="-12.7597" x2="14.08" y2="31.6403" gradientUnits="userSpaceOnUse">
            <stop stop-color="white"/>
            <stop offset="1" stop-color="#E6E7E8"/>
        </linearGradient>
        <linearGradient id="paint41_linear_2093_574" x1="-7.30003" y1="109.02" x2="-34.49" y2="129.59" gradientUnits="userSpaceOnUse">
            <stop stop-color="white"/>
            <stop offset="1" stop-color="#E6E7E8"/>
        </linearGradient>
        <linearGradient id="paint42_linear_2093_574" x1="1.52996" y1="187.14" x2="6.27996" y2="153.91" gradientUnits="userSpaceOnUse">
            <stop stop-color="white"/>
            <stop offset="1" stop-color="#E6E7E8"/>
        </linearGradient>
        <linearGradient id="paint43_linear_2093_574" x1="155.91" y1="1.9202" x2="61.31" y2="-28.5398" gradientUnits="userSpaceOnUse">
            <stop stop-color="white"/>
            <stop offset="1" stop-color="#E6E7E8"/>
        </linearGradient>
        <linearGradient id="paint44_linear_2093_574" x1="-31.08" y1="230.49" x2="23.13" y2="175.09" gradientUnits="userSpaceOnUse">
            <stop stop-color="white"/>
            <stop offset="1" stop-color="#E6E7E8"/>
        </linearGradient>
        <linearGradient id="paint45_linear_2093_574" x1="8.20007" y1="217.63" x2="53.5001" y2="230.09" gradientUnits="userSpaceOnUse">
            <stop stop-color="white"/>
            <stop offset="1" stop-color="#E6E7E8"/>
        </linearGradient>
        <linearGradient id="paint46_linear_2093_574" x1="-9.60993" y1="221.17" x2="38.0844" y2="319.681" gradientUnits="userSpaceOnUse">
            <stop stop-color="white"/>
            <stop offset="1" stop-color="#E6E7E8"/>
        </linearGradient>
        <linearGradient id="paint47_linear_2093_574" x1="61.6201" y1="307.17" x2="38.4401" y2="254.5" gradientUnits="userSpaceOnUse">
            <stop stop-color="white"/>
            <stop offset="1" stop-color="#E6E7E8"/>
        </linearGradient>
        <linearGradient id="paint48_linear_2093_574" x1="109.47" y1="353.47" x2="59.0799" y2="307.48" gradientUnits="userSpaceOnUse">
            <stop stop-color="white"/>
            <stop offset="1" stop-color="#E6E7E8"/>
        </linearGradient>
        <linearGradient id="paint49_linear_2093_574" x1="16.7499" y1="328.51" x2="108.088" y2="424.492" gradientUnits="userSpaceOnUse">
            <stop stop-color="white"/>
            <stop offset="1" stop-color="#E6E7E8"/>
        </linearGradient>
        <linearGradient id="paint50_linear_2093_574" x1="-6.85999" y1="389.02" x2="14.33" y2="366.15" gradientUnits="userSpaceOnUse">
            <stop stop-color="white"/>
            <stop offset="1" stop-color="#E6E7E8"/>
        </linearGradient>
        <linearGradient id="paint51_linear_2093_574" x1="78.1499" y1="158.38" x2="65.1499" y2="182.74" gradientUnits="userSpaceOnUse">
            <stop stop-color="white"/>
            <stop offset="1" stop-color="#E6E7E8"/>
        </linearGradient>
        <linearGradient id="paint52_linear_2093_574" x1="52.23" y1="207.04" x2="138.77" y2="187.98" gradientUnits="userSpaceOnUse">
            <stop stop-color="white"/>
            <stop offset="1" stop-color="#E6E7E8"/>
        </linearGradient>
        <linearGradient id="paint53_linear_2093_574" x1="75.6799" y1="64.4301" x2="2.88994" y2="60.2601" gradientUnits="userSpaceOnUse">
            <stop stop-color="white"/>
            <stop offset="1" stop-color="#E6E7E8"/>
        </linearGradient>
        <linearGradient id="paint54_linear_2093_574" x1="-8.01005" y1="59.8502" x2="46.79" y2="111.92" gradientUnits="userSpaceOnUse">
            <stop stop-color="white"/>
            <stop offset="1" stop-color="#E6E7E8"/>
        </linearGradient>
        <linearGradient id="paint55_linear_2093_574" x1="24.6599" y1="69.6802" x2="70.1399" y2="19.2702" gradientUnits="userSpaceOnUse">
            <stop stop-color="white"/>
            <stop offset="1" stop-color="#E6E7E8"/>
        </linearGradient>
        <linearGradient id="paint56_linear_2093_574" x1="47.7299" y1="105.7" x2="97.7499" y2="179.43" gradientUnits="userSpaceOnUse">
            <stop stop-color="white"/>
            <stop offset="1" stop-color="#E6E7E8"/>
        </linearGradient>
        <linearGradient id="paint57_linear_2093_574" x1="138.967" y1="109.685" x2="140.601" y2="129.082" gradientUnits="userSpaceOnUse">
            <stop stop-color="white"/>
            <stop offset="1" stop-color="#E6E7E8"/>
        </linearGradient>
        <linearGradient id="paint58_linear_2093_574" x1="163.389" y1="92.2287" x2="131.423" y2="112.643" gradientUnits="userSpaceOnUse">
            <stop stop-color="white"/>
            <stop offset="1" stop-color="#E6E7E8"/>
        </linearGradient>
        <linearGradient id="paint59_linear_2093_574" x1="91.11" y1="21.6602" x2="79.52" y2="88.3802" gradientUnits="userSpaceOnUse">
            <stop stop-color="white"/>
            <stop offset="1" stop-color="#E6E7E8"/>
        </linearGradient>
        <linearGradient id="paint60_linear_2093_574" x1="167.646" y1="364.713" x2="132.251" y2="364.632" gradientUnits="userSpaceOnUse">
            <stop stop-color="white"/>
            <stop offset="1" stop-color="#E6E7E8"/>
        </linearGradient>
        <linearGradient id="paint61_linear_2093_574" x1="141.533" y1="320.557" x2="188.941" y2="392.675" gradientUnits="userSpaceOnUse">
            <stop stop-color="white"/>
            <stop offset="1" stop-color="#E6E7E8"/>
        </linearGradient>
        <linearGradient id="paint62_linear_2093_574" x1="122.468" y1="228.858" x2="124.793" y2="247.616" gradientUnits="userSpaceOnUse">
            <stop stop-color="white"/>
            <stop offset="1" stop-color="#E6E7E8"/>
        </linearGradient>
        <linearGradient id="paint63_linear_2093_574" x1="119.235" y1="238.33" x2="133.212" y2="221.809" gradientUnits="userSpaceOnUse">
            <stop stop-color="white"/>
            <stop offset="1" stop-color="#E6E7E8"/>
        </linearGradient>
        <linearGradient id="paint64_linear_2093_574" x1="138.228" y1="245.53" x2="134.833" y2="235.794" gradientUnits="userSpaceOnUse">
            <stop stop-color="white"/>
            <stop offset="1" stop-color="#E6E7E8"/>
        </linearGradient>
        <linearGradient id="paint65_linear_2093_574" x1="148.106" y1="5.15653" x2="167.075" y2="-30.3094" gradientUnits="userSpaceOnUse">
            <stop stop-color="white"/>
            <stop offset="1" stop-color="#E6E7E8"/>
        </linearGradient>
        <linearGradient id="paint66_linear_2093_574" x1="152.665" y1="7.59478" x2="183.203" y2="-49.5016" gradientUnits="userSpaceOnUse">
            <stop stop-color="white"/>
            <stop offset="1" stop-color="#E6E7E8"/>
        </linearGradient>
        <linearGradient id="paint67_linear_2093_574" x1="111.34" y1="86.4345" x2="131.084" y2="109.949" gradientUnits="userSpaceOnUse">
            <stop stop-color="white"/>
            <stop offset="1" stop-color="white" stop-opacity="0"/>
        </linearGradient>
        <linearGradient id="paint68_linear_2093_574" x1="153.67" y1="158.61" x2="110.62" y2="162.17" gradientUnits="userSpaceOnUse">
            <stop stop-color="white"/>
            <stop offset="1" stop-color="white" stop-opacity="0"/>
        </linearGradient>
        <linearGradient id="paint69_linear_2093_574" x1="-6.12008" y1="175.53" x2="83.3199" y2="196.36" gradientUnits="userSpaceOnUse">
            <stop stop-color="white"/>
            <stop offset="1" stop-color="white" stop-opacity="0"/>
        </linearGradient>
        <linearGradient id="paint70_linear_2093_574" x1="16.19" y1="194.65" x2="28.54" y2="207.92" gradientUnits="userSpaceOnUse">
            <stop stop-color="white"/>
            <stop offset="1" stop-color="white" stop-opacity="0"/>
        </linearGradient>
        <linearGradient id="paint71_linear_2093_574" x1="80.15" y1="51.6701" x2="78.4" y2="110.42" gradientUnits="userSpaceOnUse">
            <stop stop-color="white"/>
            <stop offset="1" stop-color="white" stop-opacity="0"/>
        </linearGradient>
        <linearGradient id="paint72_linear_2093_574" x1="-16.5499" y1="45.0902" x2="18.2401" y2="35.7302" gradientUnits="userSpaceOnUse">
            <stop stop-color="white"/>
            <stop offset="1" stop-color="white" stop-opacity="0"/>
        </linearGradient>
        <linearGradient id="paint73_linear_2093_574" x1="165.96" y1="37.6901" x2="128.22" y2="6.48014" gradientUnits="userSpaceOnUse">
            <stop stop-color="white"/>
            <stop offset="1" stop-color="white" stop-opacity="0"/>
        </linearGradient>
        <linearGradient id="paint74_linear_2093_574" x1="192.63" y1="282.09" x2="89.55" y2="287.21" gradientUnits="userSpaceOnUse">
            <stop stop-color="white"/>
            <stop offset="1" stop-color="white" stop-opacity="0"/>
        </linearGradient>
        <linearGradient id="paint75_linear_2093_574" x1="144.303" y1="223.949" x2="131.717" y2="235.699" gradientUnits="userSpaceOnUse">
            <stop stop-color="white"/>
            <stop offset="1" stop-color="white" stop-opacity="0"/>
        </linearGradient>
        <linearGradient id="paint76_linear_2093_574" x1="133.295" y1="200.999" x2="158.609" y2="221.342" gradientUnits="userSpaceOnUse">
            <stop stop-color="white"/>
            <stop offset="1" stop-color="#E6E7E8"/>
        </linearGradient>
        <linearGradient id="paint77_linear_2093_574" x1="140.657" y1="216.541" x2="138.111" y2="179.468" gradientUnits="userSpaceOnUse">
            <stop stop-color="white"/>
            <stop offset="1" stop-color="#E6E7E8"/>
        </linearGradient>
        <linearGradient id="paint78_linear_2093_574" x1="172.674" y1="202.694" x2="156.843" y2="194.76" gradientUnits="userSpaceOnUse">
            <stop stop-color="white"/>
            <stop offset="1" stop-color="#E6E7E8"/>
        </linearGradient>
        <linearGradient id="paint79_linear_2093_574" x1="154.33" y1="168.832" x2="152.881" y2="198.371" gradientUnits="userSpaceOnUse">
            <stop stop-color="white"/>
            <stop offset="1" stop-color="white" stop-opacity="0"/>
        </linearGradient>
        <linearGradient id="paint80_linear_2093_574" x1="112.43" y1="378.8" x2="93.68" y2="349.7" gradientUnits="userSpaceOnUse">
            <stop stop-color="white"/>
            <stop offset="1" stop-color="white" stop-opacity="0"/>
        </linearGradient>
        <linearGradient id="paint81_linear_2093_574" x1="-47.5801" y1="65.7802" x2="-7.95012" y2="88.3601" gradientUnits="userSpaceOnUse">
            <stop stop-color="white"/>
            <stop offset="1" stop-color="white" stop-opacity="0"/>
        </linearGradient>
        <linearGradient id="paint82_linear_2093_574" x1="302.44" y1="165.68" x2="365.13" y2="165.68" gradientUnits="userSpaceOnUse">
            <stop offset="0.03" stop-color="#00002C"/>
            <stop offset="0.25" stop-color="#26448A"/>
            <stop offset="0.36" stop-color="#0162AE"/>
            <stop offset="0.46" stop-color="#0669B2"/>
            <stop offset="0.59" stop-color="#157DC0"/>
            <stop offset="0.76" stop-color="#2E9ED7"/>
            <stop offset="0.93" stop-color="#4EC8F4"/>
        </linearGradient>
        <linearGradient id="paint83_linear_2093_574" x1="267.61" y1="136.59" x2="340.83" y2="136.59" gradientUnits="userSpaceOnUse">
            <stop stop-color="#8A0039"/>
            <stop offset="0.25" stop-color="#D3085C"/>
            <stop offset="0.65" stop-color="#EC1067"/>
            <stop offset="0.72" stop-color="#EC176B"/>
            <stop offset="0.83" stop-color="#EC2B79"/>
            <stop offset="0.95" stop-color="#ED4C8F"/>
            <stop offset="1" stop-color="#EE5B99"/>
        </linearGradient>
    </defs>
</svg>
