<svg viewBox="0 0 24 19" fill="none" xmlns="http://www.w3.org/2000/svg">
    <path d="M0.530029 4.18009C0.700029 3.88009 0.920059 3.66 1.31006 3.71C1.44006 3.73 1.56003 3.78002 1.66003 3.86002C3.31003 5.18002 4.95998 6.49998 6.59998 7.81998C6.89998 8.05998 6.95006 8.32001 6.81006 8.72001C6.49006 9.68001 7.13 10.6 8.12 10.59C8.68999 10.59 9.19001 10.2201 9.39001 9.65006C9.58001 9.13006 9.40999 8.51007 8.98999 8.16007C8.54999 7.79007 8.50001 7.55007 8.76001 7.03007C9.70001 5.14007 10.65 3.26003 11.59 1.37003C11.78 0.990031 12.08 0.850007 12.45 0.970007C12.67 1.04001 12.79 1.20006 12.89 1.40006C13.62 2.87006 14.36 4.34009 15.1 5.81009C15.31 6.23009 15.51 6.64009 15.72 7.06009C15.96 7.53009 15.9 7.81005 15.5 8.14005C14.97 8.57005 14.8399 9.33007 15.1899 9.91007C15.5399 10.5101 16.27 10.75 16.92 10.48C17.54 10.22 17.88 9.52002 17.7 8.86002C17.67 8.74002 17.62 8.63005 17.6 8.51005C17.55 8.21005 17.66 7.98008 17.9 7.79008C19.53 6.49008 21.15 5.19005 22.78 3.89005C23.07 3.66005 23.38 3.63008 23.64 3.80009C23.9 3.97009 24 4.27003 23.91 4.62003C23.08 7.93003 22.2599 11.2401 21.4399 14.5501C21.3999 14.6901 21.35 14.74 21.2 14.74C15.23 14.74 9.26005 14.74 3.30005 14.74C3.15005 14.74 3.09005 14.6901 3.05005 14.5501C2.36005 11.7601 1.64996 8.97009 0.959961 6.18009C0.839961 5.71009 0.739995 5.24005 0.619995 4.76005C0.599995 4.69005 0.590039 4.62999 0.540039 4.57999V4.17008L0.530029 4.18009Z" fill="currentColor"/>
    <path d="M12.26 16.12C15.16 16.12 18.07 16.12 20.97 16.12C21.16 16.12 21.22 16.16 21.21 16.36C21.2 16.95 21.21 17.54 21.21 18.12C21.21 18.6 20.92 18.9 20.45 18.9C14.99 18.9 9.52006 18.9 4.06006 18.9C3.60006 18.9 3.30004 18.6 3.29004 18.15C3.29004 17.54 3.29004 16.9299 3.29004 16.3199C3.29004 16.1599 3.33999 16.13 3.48999 16.13C6.41999 16.13 9.34002 16.13 12.27 16.13L12.26 16.12Z" fill="currentColor"/>
</svg>
