<svg viewBox="0 0 539 48" fill="none" xmlns="http://www.w3.org/2000/svg">
    <mask id="mask0_2093_2" style="mask-type:luminance" maskUnits="userSpaceOnUse" x="0" y="0" width="539" height="48">
        <path d="M526.752 47.34H3.39203C1.16203 47.34 -0.327986 45.5299 0.0620139 43.2999L6.98206 4.04004C7.37206 1.81004 9.50206 0 11.7321 0H535.092C537.322 0 538.812 1.81004 538.422 4.04004L531.502 43.2999C531.112 45.5299 528.982 47.34 526.752 47.34Z" fill="white"/>
    </mask>
    <g mask="url(#mask0_2093_2)">
        <path d="M525.752 47.34H2.39203C0.162031 47.34 -1.32799 45.5299 -0.937986 43.2999L5.98206 4.04004C6.37206 1.81004 8.50206 0 10.7321 0H534.092C536.322 0 537.812 1.81004 537.422 4.04004L530.502 43.2999C530.112 45.5299 527.982 47.34 525.752 47.34Z" fill="url(#paint0_linear_2093_2)"/>
        <path style="mix-blend-mode:screen" d="M599.882 -10.0801C599.892 103.76 410.892 196.06 177.762 196.05C-55.3779 196.05 -244.368 103.72 -244.358 -10.1C-244.358 -123.9 -55.3779 -216.21 177.762 -216.25C410.892 -216.2 599.892 -123.92 599.882 -10.0801Z" fill="url(#paint1_radial_2093_2)"/>
        <path style="mix-blend-mode:color-dodge" d="M444.542 -10.0898C444.542 61.8802 325.102 120.2 177.762 120.22C30.4122 120.22 -89.0378 61.85 -89.0378 -10.08C-89.0478 -82.05 30.4022 -140.35 177.752 -140.38C325.102 -140.38 444.542 -82.0298 444.542 -10.0898Z" fill="url(#paint2_radial_2093_2)"/>
        <path style="mix-blend-mode:screen" d="M599.882 -10.0801C599.882 13.8699 410.892 33.3199 177.762 33.3199C-55.3779 33.3199 -244.368 13.86 -244.358 -10.1C-244.358 -34.04 -55.3779 -53.48 177.762 -53.5C410.902 -53.5 599.882 -34.0401 599.882 -10.0801Z" fill="url(#paint3_radial_2093_2)"/>
        <path style="mix-blend-mode:color-dodge" d="M444.542 -10.0899C444.552 5.10006 325.112 17.33 177.752 17.34C30.4022 17.37 -89.0478 5.06995 -89.0378 -10.0801C-89.0478 -25.2201 30.4022 -37.52 177.752 -37.5C325.102 -37.5 444.542 -25.2499 444.542 -10.0899Z" fill="url(#paint4_radial_2093_2)"/>
        <g style="mix-blend-mode:color-dodge">
            <path d="M416.832 6.68018L416.932 6.78027L468.912 58.4902L530.812 58.3302L553.232 29.8202L607.492 28.9502L607.502 29.6403L553.572 30.4902L531.142 59.0103H530.982L468.632 59.1802L468.532 59.0802L416.552 7.37024L313.932 7.64026L295.622 26.0502H295.472L235.232 26.2102L206.612 54.9902H206.462L86.4221 55.3102V54.6202L206.322 54.3102L234.952 25.5303H235.092L295.332 25.3702L313.652 6.96021H313.792L416.832 6.68018Z" fill="#8E8E8E"/>
        </g>
        <g style="mix-blend-mode:color-dodge">
            <path d="M265.462 -15.8699L265.562 -15.7699L339.772 58.05L386.472 57.9301L410.232 34.0402H410.372L506.852 33.7902V34.4701L410.522 34.7301L386.762 58.6101H386.622L339.492 58.7401L339.392 58.6401L265.182 -15.1799L168.192 -14.9299L132.882 20.5701H132.742L28.652 20.8501L-4.50793 54.1901H-4.64795L-97.6479 54.4301V53.7501L-4.78796 53.5001L28.372 20.1602H28.512L132.592 19.8901L167.902 -15.6099H168.052L265.462 -15.8699Z" fill="#8E8E8E"/>
            <path d="M506.772 32.5901C507.622 32.5901 508.312 33.2801 508.322 34.1301C508.322 34.9801 507.632 35.6701 506.782 35.6801C505.932 35.6801 505.242 34.9901 505.232 34.1401C505.232 33.2901 505.922 32.6001 506.772 32.5901Z" fill="#8E8E8E"/>
        </g>
        <g style="mix-blend-mode:color-dodge">
            <path d="M174.162 -22.3899L174.262 -22.2899L203.862 7.15015L266.252 6.9801L266.352 7.08008L292.532 33.1301L366.422 32.9301V33.6201L292.252 33.8101L292.152 33.7101L265.972 7.67004L203.582 7.83008L203.482 7.7301L173.882 -21.7098L82.6819 -21.4698L50.9119 10.4601H50.772L-73.718 10.7902V10.1101L50.632 9.78015L82.392 -22.1499H82.5419L174.162 -22.3899Z" fill="#8E8E8E"/>
            <path d="M366.342 31.7301C367.192 31.7301 367.882 32.4201 367.892 33.2701C367.892 34.1201 367.202 34.8101 366.352 34.8201C365.502 34.8201 364.812 34.1302 364.802 33.2802C364.802 32.4302 365.492 31.7401 366.342 31.7301Z" fill="#8E8E8E"/>
        </g>
        <g style="mix-blend-mode:color-dodge">
            <path d="M209.912 -36.8398L210.012 -36.7399L241.922 -4.99988L313.442 -5.17993L331.582 -23.4299H331.732L412.602 -23.6399L412.702 -23.5399L439.142 2.75012L543.412 2.4801V3.16016L438.862 3.44006L438.762 3.34009L412.322 -22.9598L331.872 -22.7499L313.722 -4.49988H313.582L241.642 -4.30994L241.542 -4.40991L209.622 -36.1599L140.592 -35.9698L102.392 2.43005H102.252L-15.4778 2.74011V2.05005L102.112 1.74011L140.312 -36.6599H140.452L209.912 -36.8398Z" fill="#8E8E8E"/>
        </g>
    </g>
    <defs>
        <linearGradient id="paint0_linear_2093_2" x1="-0.997986" y1="23.67" x2="537.482" y2="23.67" gradientUnits="userSpaceOnUse">
            <stop offset="0.03" stop-color="#00002C"/>
            <stop offset="0.25" stop-color="#264487"/>
            <stop offset="0.36" stop-color="#1C85C3"/>
        </linearGradient>
        <radialGradient id="paint1_radial_2093_2" cx="0" cy="0" r="1" gradientUnits="userSpaceOnUse" gradientTransform="translate(169.41 5.35197) scale(421.778 205.643)">
            <stop offset="0.02" stop-color="#00344B"/>
            <stop offset="0.15" stop-color="#002433"/>
            <stop offset="0.32" stop-color="#00141D"/>
            <stop offset="0.51" stop-color="#00080C"/>
            <stop offset="0.72" stop-color="#000203"/>
            <stop offset="0.99"/>
        </radialGradient>
        <radialGradient id="paint2_radial_2093_2" cx="0" cy="0" r="1" gradientUnits="userSpaceOnUse" gradientTransform="translate(169.41 5.37171) scale(266.606 129.987)">
            <stop offset="0.05" stop-color="#4B4B4B"/>
            <stop offset="0.08" stop-color="#434648"/>
            <stop offset="0.12" stop-color="#2D3B41"/>
            <stop offset="0.17" stop-color="#0A2836"/>
            <stop offset="0.18" stop-color="#002333"/>
            <stop offset="0.34" stop-color="#00131D"/>
            <stop offset="0.53" stop-color="#00080C"/>
            <stop offset="0.73" stop-color="#000203"/>
            <stop offset="1"/>
        </radialGradient>
        <radialGradient id="paint3_radial_2093_2" cx="0" cy="0" r="1" gradientUnits="userSpaceOnUse" gradientTransform="translate(169.41 108.538) scale(2.01 0.205)">
            <stop offset="0.31" stop-color="#00344B"/>
            <stop offset="0.41" stop-color="#002433"/>
            <stop offset="0.53" stop-color="#00141D"/>
            <stop offset="0.66" stop-color="#00080C"/>
            <stop offset="0.8" stop-color="#000203"/>
            <stop offset="0.99"/>
        </radialGradient>
        <radialGradient id="paint4_radial_2093_2" cx="0" cy="0" r="1" gradientUnits="userSpaceOnUse" gradientTransform="translate(169.41 108.551) scale(266.526 27.183)">
            <stop offset="0.18" stop-color="#002333"/>
            <stop offset="0.34" stop-color="#00131D"/>
            <stop offset="0.53" stop-color="#00080C"/>
            <stop offset="0.73" stop-color="#000203"/>
            <stop offset="1"/>
        </radialGradient>
    </defs>
</svg>
