<?xml version="1.0" encoding="UTF-8"?>
<svg xmlns="http://www.w3.org/2000/svg" xmlns:xlink="http://www.w3.org/1999/xlink" viewBox="0 0 538.48 47.34">
  <defs>
    <style>
      .cls-1 {
        fill: url(#radial-gradient-3);
      }

      .cls-1, .cls-2, .cls-3, .cls-4, .cls-5, .cls-6, .cls-7 {
        stroke-width: 0px;
      }

      .cls-1, .cls-7 {
        mix-blend-mode: screen;
      }

      .cls-8 {
        clip-path: url(#clippath);
      }

      .cls-2 {
        fill: none;
      }

      .cls-3 {
        fill: #8e8e8e;
      }

      .cls-4 {
        fill: url(#linear-gradient);
      }

      .cls-9, .cls-5, .cls-6 {
        mix-blend-mode: color-dodge;
      }

      .cls-5 {
        fill: url(#radial-gradient-4);
      }

      .cls-6 {
        fill: url(#radial-gradient-2);
      }

      .cls-10 {
        isolation: isolate;
      }

      .cls-7 {
        fill: url(#radial-gradient);
      }
    </style>
    <clipPath id="clippath">
      <path class="cls-2" d="M526.74,47.34H3.39c-2.23,0-3.72-1.81-3.33-4.04L6.99,4.04c.39-2.23,2.52-4.04,4.75-4.04h523.36c2.23,0,3.72,1.81,3.33,4.04l-6.92,39.26c-.39,2.23-2.52,4.04-4.75,4.04Z"/>
    </clipPath>
    <linearGradient id="linear-gradient" x1="0" y1="23.67" x2="538.48" y2="23.67" gradientUnits="userSpaceOnUse">
      <stop offset=".03" stop-color="#00002c"/>
      <stop offset=".25" stop-color="#264487"/>
      <stop offset=".36" stop-color="#0162ab"/>
      <stop offset=".43" stop-color="rgba(4, 102, 173, .96)" stop-opacity=".96"/>
      <stop offset=".52" stop-color="rgba(13, 113, 182, .84)" stop-opacity=".84"/>
      <stop offset=".64" stop-color="rgba(28, 133, 195, .65)" stop-opacity=".65"/>
      <stop offset=".77" stop-color="rgba(48, 159, 214, .38)" stop-opacity=".38"/>
      <stop offset=".91" stop-color="rgba(75, 193, 238, .04)" stop-opacity=".04"/>
      <stop offset=".93" stop-color="#4ec5f1" stop-opacity="0"/>
    </linearGradient>
    <radialGradient id="radial-gradient" cx="2042.08" cy="-4711.5" fx="2042.08" fy="-4711.5" r="104.92" gradientTransform="translate(-8037.16 9237.58) scale(4.02 1.96)" gradientUnits="userSpaceOnUse">
      <stop offset=".02" stop-color="#00344b"/>
      <stop offset=".15" stop-color="#002433"/>
      <stop offset=".32" stop-color="#00141d"/>
      <stop offset=".51" stop-color="#00080c"/>
      <stop offset=".72" stop-color="#000203"/>
      <stop offset=".99" stop-color="#000"/>
    </radialGradient>
    <radialGradient id="radial-gradient-2" cx="2042.08" cy="-4711.49" fx="2042.08" fy="-4711.49" r="66.32" gradientTransform="translate(-8037.16 9237.58) scale(4.02 1.96)" gradientUnits="userSpaceOnUse">
      <stop offset=".05" stop-color="#4b4b4b"/>
      <stop offset=".08" stop-color="#434648"/>
      <stop offset=".12" stop-color="#2d3b41"/>
      <stop offset=".17" stop-color="#0a2836"/>
      <stop offset=".18" stop-color="#002333"/>
      <stop offset=".34" stop-color="#00131d"/>
      <stop offset=".53" stop-color="#00080c"/>
      <stop offset=".73" stop-color="#000203"/>
      <stop offset="1" stop-color="#000"/>
    </radialGradient>
    <radialGradient id="radial-gradient-3" cx="2042.08" cy="-35743.26" fx="2042.08" fy="-35743.26" r="104.94" gradientTransform="translate(-8037.16 14764.31) scale(4.02 .41)" gradientUnits="userSpaceOnUse">
      <stop offset=".31" stop-color="#00344b"/>
      <stop offset=".41" stop-color="#002433"/>
      <stop offset=".53" stop-color="#00141d"/>
      <stop offset=".66" stop-color="#00080c"/>
      <stop offset=".8" stop-color="#000203"/>
      <stop offset=".99" stop-color="#000"/>
    </radialGradient>
    <radialGradient id="radial-gradient-4" cx="2042.08" cy="-35743.23" fx="2042.08" fy="-35743.23" r="66.3" gradientTransform="translate(-8037.16 14764.31) scale(4.02 .41)" gradientUnits="userSpaceOnUse">
      <stop offset=".18" stop-color="#002333"/>
      <stop offset=".34" stop-color="#00131d"/>
      <stop offset=".53" stop-color="#00080c"/>
      <stop offset=".73" stop-color="#000203"/>
      <stop offset="1" stop-color="#000"/>
    </radialGradient>
  </defs>
  <g class="cls-10">
    <g id="_Слой_2" data-name="Слой 2">
      <g id="Layer_1" data-name="Layer 1">
        <g class="cls-8">
          <g>
            <path class="cls-4" d="M526.74,47.34H3.39c-2.23,0-3.72-1.81-3.33-4.04L6.99,4.04c.39-2.23,2.52-4.04,4.75-4.04h523.36c2.23,0,3.72,1.81,3.33,4.04l-6.92,39.26c-.39,2.23-2.52,4.04-4.75,4.04Z"/>
            <g>
              <g>
                <g>
                  <path class="cls-7" d="M600.87-19.09c.01,113.84-188.99,206.14-422.12,206.13-233.14,0-422.13-92.33-422.12-206.15,0-113.8,188.98-206.11,422.12-206.15,233.13.05,422.13,92.33,422.12,206.17Z"/>
                  <path class="cls-6" d="M445.54-19.1c0,71.97-119.44,130.29-266.78,130.31C31.4,111.21-88.05,52.84-88.04-19.09c-.01-71.97,119.44-130.27,266.79-130.3,147.35,0,266.79,58.35,266.79,130.29Z"/>
                </g>
                <g>
                  <path class="cls-1" d="M600.87-19.09c0,23.95-188.99,43.4-422.12,43.4C-54.39,24.31-243.38,4.86-243.38-19.11c0-23.94,188.98-43.38,422.12-43.4,233.14,0,422.12,19.46,422.12,43.42Z"/>
                  <path class="cls-5" d="M445.54-19.1c.01,15.19-119.43,27.42-266.79,27.43-147.35.03-266.8-12.27-266.79-27.42-.01-15.14,119.44-27.44,266.79-27.42,147.35,0,266.79,12.25,266.79,27.41Z"/>
                </g>
              </g>
              <g>
                <g class="cls-9">
                  <polygon class="cls-3" points="417.83 -2.32 417.93 -2.22 469.91 49.49 531.81 49.32 554.23 20.81 608.49 19.95 608.5 20.63 554.56 21.49 532.14 50.01 531.97 50.01 469.63 50.17 469.53 50.07 417.55 -1.64 314.93 -1.37 296.61 17.04 296.47 17.05 236.23 17.2 207.6 45.98 207.46 45.98 87.41 46.3 87.41 45.62 207.32 45.3 235.94 16.52 236.09 16.52 296.33 16.36 314.64 -2.05 314.78 -2.05 417.83 -2.32"/>
                  <path class="cls-3" d="M87.49,44.42c-.85,0-1.54.69-1.54,1.55,0,.85.69,1.54,1.55,1.54.85,0,1.54-.69,1.54-1.55s-.69-1.54-1.55-1.54Z"/>
                </g>
                <g class="cls-9">
                  <polygon class="cls-3" points="266.46 -24.87 266.56 -24.77 340.77 49.05 387.47 48.92 411.23 25.04 411.37 25.04 507.84 24.78 507.85 25.47 411.51 25.72 387.75 49.61 387.61 49.61 340.49 49.73 340.39 49.63 266.18 -24.19 169.18 -23.93 133.87 11.57 133.73 11.57 29.65 11.84 -3.51 45.18 -3.66 45.18 -96.65 45.43 -96.66 44.74 -3.8 44.5 29.37 11.16 29.51 11.16 133.59 10.88 168.9 -24.61 169.04 -24.61 266.46 -24.87"/>
                  <path class="cls-3" d="M507.76,23.58c.85,0,1.54.69,1.55,1.54,0,.85-.69,1.54-1.54,1.55-.85,0-1.54-.69-1.55-1.54,0-.85.69-1.54,1.54-1.55Z"/>
                </g>
                <g class="cls-9">
                  <polygon class="cls-3" points="175.16 -31.4 175.26 -31.3 204.86 -1.86 267.25 -2.02 267.35 -1.92 293.53 24.12 367.42 23.93 367.42 24.61 293.25 24.81 293.15 24.71 266.97 -1.34 204.58 -1.17 204.48 -1.27 174.88 -30.71 83.67 -30.47 51.91 1.46 51.77 1.46 -72.73 1.79 -72.73 1.11 51.62 .78 83.39 -31.16 83.53 -31.16 175.16 -31.4"/>
                  <path class="cls-3" d="M367.34,22.73c.85,0,1.54.69,1.55,1.54,0,.85-.69,1.54-1.54,1.55-.85,0-1.54-.69-1.55-1.54,0-.85.69-1.54,1.54-1.55Z"/>
                </g>
              </g>
            </g>
          </g>
        </g>
      </g>
    </g>
  </g>
</svg>