<svg viewBox="0 0 147 80" fill="none" xmlns="http://www.w3.org/2000/svg">
    <path d="M49.3501 50.1H40.6301L32.6501 58.69H30.61L32.7401 50.1H22.6701C22.6701 50.51 22.7501 50.95 22.9101 51.44C23.0701 51.93 23.2401 52.4 23.4301 52.85C23.6201 53.3 23.8001 53.7 23.9701 54.04C24.1401 54.39 24.24 54.62 24.2701 54.73L19.5001 73.95H26.7901L28.9201 65.36H31.6501L35.3801 73.95H43.4101L38.33 62.02L49.3501 50.09V50.1ZM33.9501 46.23L39.9001 22.33H32.6001L26.6501 46.23H33.9501ZM65.8 25.02C65.9901 25.47 66.1701 25.86 66.3401 26.21C66.5101 26.56 66.6101 26.79 66.6401 26.9L61.8801 46.08H69.1501L71.2701 37.55H80.4501L78.33 46.08H85.6001L90.0601 27.89C89.7401 25.8 89.6601 23.78 89.6501 22.43L84.1201 22.34L82.1501 30.8H72.9701L75.0901 22.27H65.05C65.05 22.67 65.1301 23.12 65.2901 23.61C65.4501 24.1 65.6201 24.57 65.8101 25.02H65.8ZM37.0101 43.24C37.0501 43.73 37.1501 44.2 37.2901 44.65C37.4301 45.1 37.6301 45.48 37.8801 45.78C38.1301 46.08 38.4101 46.24 38.7301 46.24H57.0201C57.3101 46.24 57.6601 46.09 58.0601 45.78C58.4601 45.48 58.8601 45.1 59.2501 44.65C59.6401 44.2 59.9901 43.73 60.2901 43.24C60.5901 42.75 60.7901 42.3 60.8801 41.89L63.6201 30.94H49.9301L48.2401 37.63H54.6301L54.3701 38.72C54.3101 38.89 54.2201 39.07 54.0901 39.24C53.9601 39.41 53.8201 39.5 53.6801 39.5H45.4701C45.3201 39.5 45.2201 39.41 45.1701 39.24C45.1101 39.07 45.1101 38.89 45.1701 38.72L47.3901 29.86C47.4501 29.72 47.5301 29.55 47.6501 29.36C47.7701 29.17 47.9001 29.08 48.0401 29.08H64.0701C64.0701 29.08 63.0401 27.59 62.2101 25.37C61.9701 24.71 61.4101 22.34 61.4101 22.34H44.6901C44.3701 22.34 44.0201 22.49 43.6301 22.8C43.2401 23.1 42.8501 23.48 42.4801 23.93C42.1001 24.38 41.7601 24.86 41.4601 25.36C41.1601 25.87 40.9601 26.31 40.8701 26.69L37.0901 41.9C37.0001 42.31 36.9801 42.75 37.0301 43.25L37.0101 43.24ZM74.7701 59.26H82.0601L83.2301 54.44C83.3201 54.06 83.3401 53.62 83.2901 53.12C83.2501 52.61 83.1501 52.14 82.9901 51.69C82.83 51.24 82.62 50.87 82.36 50.56C82.1 50.26 81.8201 50.1 81.5401 50.1H63.2801C62.9601 50.1 62.6101 50.25 62.2201 50.56C61.8301 50.86 61.4501 51.24 61.0701 51.69C60.6901 52.14 60.35 52.62 60.05 53.12C59.75 53.63 59.5501 54.07 59.4601 54.44L55.6901 69.62C55.6001 70.03 55.5801 70.47 55.6201 70.96C55.6601 71.45 55.7601 71.92 55.9001 72.37C56.0401 72.82 56.2401 73.19 56.4901 73.5C56.7301 73.8 57.0201 73.96 57.3401 73.96H75.61C75.9 73.96 76.2501 73.81 76.6501 73.5C77.0501 73.2 77.4501 72.82 77.8401 72.37C78.2301 71.92 78.5801 71.45 78.8801 70.96C79.1801 70.47 79.3801 70.02 79.4701 69.62L80.6801 64.8H73.3901L72.9601 66.45C72.9001 66.62 72.8101 66.8 72.6801 66.97C72.5501 67.14 72.41 67.23 72.2701 67.23H64.0701C63.9201 67.23 63.82 67.14 63.7701 66.97C63.71 66.8 63.71 66.62 63.7701 66.45L65.9801 57.6C66.0401 57.46 66.12 57.29 66.2401 57.1C66.3601 56.91 66.4801 56.82 66.6301 56.82H74.83C74.97 56.82 75.0801 56.91 75.1601 57.08C75.2301 57.25 75.2401 57.43 75.1801 57.6L74.7901 59.25L74.7701 59.26ZM106.53 50.1H103.53L95.55 58.69H93.5101L95.6401 50.1H85.5701C85.5701 50.51 85.6501 50.95 85.8101 51.44C85.9701 51.93 86.14 52.4 86.33 52.85C86.5201 53.3 86.7001 53.7 86.8701 54.04C87.0401 54.39 87.1401 54.62 87.1701 54.73L82.4001 73.95H89.6901L91.8201 65.36H94.55L98.2801 73.95H106.31L101.23 62.02L107.93 54.88C107.77 53.48 107.08 51.52 106.53 50.09V50.1ZM51.2201 50.1L43.8401 79.73C44.1001 79.73 44.4901 79.61 45.0101 79.36C45.5301 79.11 46.1001 78.8 46.7201 78.43C47.3401 78.05 47.9901 77.63 48.6501 77.17C49.3101 76.71 49.9201 76.27 50.4701 75.85C51.0201 75.43 51.4901 75.05 51.8801 74.7C52.2701 74.35 52.49 74.11 52.55 73.96L58.4901 50.1H51.2001H51.2201ZM24.2901 46.23L30.2201 22.41H22.9401L20.8201 30.94H11.6401L13.7601 22.41H3.71005C3.71005 22.81 3.79007 23.26 3.95007 23.75C4.11007 24.24 4.28006 24.71 4.47006 25.16C4.66006 25.61 4.84007 26 5.01007 26.35C5.18007 26.7 5.28006 26.93 5.31006 27.04L0.550049 46.23H7.83005L9.95007 37.7H19.1301L17.0101 46.23H24.2901Z" fill="white"/>
    <path d="M145.97 2.54005C145.74 1.80005 145.26 0.260049 144.05 0.440049C143.81 0.480049 143.58 0.580048 143.36 0.760048C142.64 1.35005 142.51 2.12005 142.43 2.62005C142.41 2.73005 142.39 2.83005 142.37 2.92005C142.24 3.46005 142.4 4.09005 142.2 4.62005C142.06 5.01005 141.45 5.76005 140.68 6.11005C140.23 6.31005 139.9 6.46005 138.83 6.97005C138.56 7.10005 138.27 7.25005 137.95 7.41005C135.51 8.63005 131.67 9.60005 129.84 11.37C128.87 12.3 127.89 12.72 126.84 13.17C125.76 13.63 124.65 14.1001 123.5 15.1301C122.92 15.6501 122.4 15.94 121.79 16.28C121.23 16.59 120.61 16.94 119.84 17.51C119.57 17.51 119.17 17.5101 118.69 17.5801C117.84 17.7101 117.04 17.9901 116.33 18.4101C115.43 18.9401 115.02 19.5001 114.72 19.9001C114.44 20.2801 114.37 20.3601 114.07 20.4001C114.04 20.4001 114.02 20.4001 113.99 20.4101C113.78 20.4301 113.59 20.4501 113.43 20.4801C112.31 20.6501 111.79 20.98 110.64 21.7C110.2 21.98 109.78 22.14 109.39 22.2C108.98 22.26 108.65 22.2001 108.36 22.1201C107.63 21.9301 107.19 21.5301 107.05 20.93C106.89 20.24 106.52 19.37 106.21 18.71C106.61 18.59 107.09 18.4001 107.65 18.1201C107.84 18.1101 108.17 18.08 108.58 18.02C109.58 17.87 111.08 17.5101 112.57 16.6501C113.54 16.0901 114.42 15.4401 115.35 14.7401C116.06 14.2101 116.8 13.66 117.68 13.07C117.78 13 118.17 12.91 118.45 12.84C119.54 12.58 121.58 12.08 121.61 9.98005C121.63 8.58005 121.05 7.77005 120.56 7.34005C119.81 6.68005 118.73 6.41005 117.52 6.59005C117.49 6.59005 117.47 6.59005 117.44 6.60005C115.66 6.89005 115.41 8.26005 115.3 8.91005C115.28 9.00005 115.27 9.11005 115.25 9.17005C114.37 10.08 113.56 10.47 112.77 10.84C112.6 10.92 112.42 11.01 112.25 11.1C112.17 11.14 112.09 11.18 112.01 11.23C111.37 11.56 110.87 11.8201 109.08 12.2701C109.02 12.2801 108.97 12.3 108.9 12.3C108.66 12.34 108.37 12.3301 108.05 12.3301C107.56 12.3301 106.95 12.3101 106.16 12.43C105.76 12.4901 105.36 12.57 104.94 12.69C104.59 12.59 104 12.51 103.1 12.64C103.04 12.64 102.99 12.66 102.93 12.67C102.47 10.81 101.11 8.32005 98.2101 8.32005C97.9401 8.32005 97.6801 8.34005 97.4301 8.38005C96.0101 8.59005 94.8802 9.41005 94.2602 10.68C94.0202 11.16 93.8701 11.7 93.8001 12.26C93.8001 12.32 93.8002 12.4 93.7902 12.48L93.8401 14.09C93.8401 14.17 93.8601 14.24 93.8601 14.3C93.9401 14.73 94.0701 15.1601 94.2401 15.5801C93.3601 16.3101 91.7001 17.9001 91.1801 19.9401C90.6301 21.7101 90.4102 24.81 91.4502 28.25C91.5502 28.57 91.5702 28.9001 91.6002 29.2601C91.6702 30.0501 91.7502 31.0201 92.6702 31.9401C93.2902 32.5501 94.5501 32.4701 95.2501 32.3701C96.1701 32.2301 97.0901 31.9201 97.9001 31.4801C99.6901 32.8401 101.04 33.53 101.72 33.84C101.88 34.46 102.36 35.1801 103.47 35.4101C103.52 35.4201 103.56 35.4301 103.57 35.4401C103.59 35.5001 103.61 35.6301 103.62 35.7201C103.68 36.1201 103.78 36.88 104.59 37.24C104.71 37.36 104.79 37.9001 104.84 38.1901C104.93 38.7701 105.04 39.41 105.49 39.7901C105.49 39.98 105.44 40.32 105.4 40.56C105.3 41.23 105.19 41.98 105.36 42.68C105.61 43.6501 106.44 45.6901 107.05 47.1501C107.09 47.2601 107.75 47.3801 107.77 47.43C108.36 48.87 108.92 52.5601 109.26 54.4401C109.34 54.8901 109.34 55.44 109.33 56.14C109.33 57.59 109.31 59.57 110.05 62.42C110.27 63.27 110.49 64.0701 110.7 64.8501C111.1 66.3101 111.45 67.5701 111.61 68.5401C111.82 69.7701 111.64 70.01 111.63 70.0201C110.78 71.0601 110.38 71.6001 110.12 72.4301C109.99 72.8601 110.05 73.3 110.33 73.6001C111.34 74.6501 111.72 73.9501 113.42 74.09C115.22 74.2401 117.03 74.1501 116.96 73.2101C116.91 72.5801 116.62 70.8701 116.45 70.3901C116.29 69.9401 116.07 69.3301 115.89 68.1201C115.53 65.7401 115.61 64.2901 115.89 62.2901C116.2 60.12 116.05 58.8201 115.64 56.8701C115.45 55.9601 115.53 55.25 115.62 54.5C115.7 53.85 115.77 53.18 115.67 52.4001C115.56 51.5501 115.63 49.9701 115.7 48.2901C115.73 47.64 115.76 46.96 115.78 46.2901C115.84 44.4901 115.86 43.5 115.86 43.1L116.81 41.4801L116.92 41.2901V34.85C117.24 34.41 118.14 33.26 119.61 32.09C121.15 30.86 122.66 28.9101 122.72 28.8301L122.88 28.63L123.41 27.95C123.41 27.95 123.01 27.0801 122.95 26.0101C125.92 24.2501 128.62 21.3201 130.21 19.4701C130.94 18.6101 131.11 17.1 132.62 16.0401C134.71 14.5701 137.83 12.6801 139.22 11.1501C141.03 9.15005 141.42 8.99005 143.57 8.00005L143.73 7.92005C145.09 7.30005 145.9 6.92005 145.63 5.19005C145.6 4.99005 145.63 4.90005 145.76 4.63005C145.95 4.22005 146.24 3.61005 145.92 2.57005L145.97 2.54005Z" fill="white"/>
</svg>
