<svg viewBox="0 0 102 35" fill="none" xmlns="http://www.w3.org/2000/svg">
    <path d="M93.3556 33.95H2.36562C0.805615 33.95 -0.234453 32.6899 0.0455468 31.1299L4.87563 3.72998C5.14563 2.16998 6.63557 0.909912 8.19557 0.909912H99.1856C100.746 0.909912 101.786 2.16998 101.506 3.72998L96.6756 31.1299C96.4056 32.6899 94.9156 33.95 93.3556 33.95Z" fill="#0580C0"/>
    <path d="M11.9214 6.60003H15.4414V15.72H19.2174V6.60003H22.7374V29H19.2174V18.92H15.4414V29H11.9214V6.60003ZM25.3589 6.60003H28.8789V29H25.3589V6.60003ZM36.5071 29.32C34.8005 29.32 33.4991 28.84 32.6031 27.88C31.7071 26.8987 31.2591 25.5013 31.2591 23.688V11.912C31.2591 10.0987 31.7071 8.71203 32.6031 7.75203C33.4991 6.7707 34.8005 6.28003 36.5071 6.28003C38.2138 6.28003 39.5151 6.7707 40.4111 7.75203C41.3071 8.71203 41.7551 10.0987 41.7551 11.912V13.832H38.4271V11.688C38.4271 10.216 37.8191 9.48003 36.6031 9.48003C35.3871 9.48003 34.7791 10.216 34.7791 11.688V23.944C34.7791 25.3947 35.3871 26.12 36.6031 26.12C37.8191 26.12 38.4271 25.3947 38.4271 23.944V19.56H36.6671V16.36H41.7551V23.688C41.7551 25.5013 41.3071 26.8987 40.4111 27.88C39.5151 28.84 38.2138 29.32 36.5071 29.32ZM44.0151 6.60003H47.5351V15.72H51.3111V6.60003H54.8311V29H51.3111V18.92H47.5351V29H44.0151V6.60003ZM57.4526 6.60003H67.0526V9.80003H60.9726V15.72H65.8046V18.92H60.9726V25.8H67.0526V29H57.4526V6.60003ZM73.7161 29.32C72.0095 29.32 70.7188 28.84 69.8441 27.88C68.9695 26.8987 68.5321 25.5013 68.5321 23.688V22.408H71.8601V23.944C71.8601 25.3947 72.4681 26.12 73.6841 26.12C74.2815 26.12 74.7295 25.9493 75.0281 25.608C75.3481 25.2453 75.5081 24.6693 75.5081 23.88C75.5081 22.9413 75.2948 22.12 74.8681 21.416C74.4415 20.6907 73.6521 19.8267 72.5001 18.824C71.0495 17.544 70.0361 16.392 69.4601 15.368C68.8841 14.3227 68.5961 13.1493 68.5961 11.848C68.5961 10.0773 69.0441 8.71203 69.9401 7.75203C70.8361 6.7707 72.1375 6.28003 73.8441 6.28003C75.5295 6.28003 76.7988 6.7707 77.6521 7.75203C78.5268 8.71203 78.9641 10.0987 78.9641 11.912V12.84H75.6361V11.688C75.6361 10.92 75.4868 10.3653 75.1881 10.024C74.8895 9.66136 74.4521 9.48003 73.8761 9.48003C72.7028 9.48003 72.1161 10.1947 72.1161 11.624C72.1161 12.4347 72.3295 13.192 72.7561 13.896C73.2041 14.6 74.0041 15.4533 75.1561 16.456C76.6281 17.736 77.6415 18.8987 78.1961 19.944C78.7508 20.9893 79.0281 22.216 79.0281 23.624C79.0281 25.4587 78.5695 26.8667 77.6521 27.848C76.7561 28.8293 75.4441 29.32 73.7161 29.32ZM83.7984 9.80003H80.1184V6.60003H90.9984V9.80003H87.3184V29H83.7984V9.80003Z" fill="white"/>
</svg>
