<svg viewBox="0 0 33 34" fill="none" xmlns="http://www.w3.org/2000/svg">
    <path d="M32.86 16.76C32.86 25.83 25.5 33.1899 16.43 33.1899C7.35999 33.1899 0 25.83 0 16.76C0 7.69001 7.35999 0.330078 16.43 0.330078C25.5 0.330078 32.86 7.69001 32.86 16.76Z" fill="#E81068"/>
    <path d="M22.4 7.03003H10.46C8.38996 7.03003 6.69995 8.72004 6.69995 10.79V22.73C6.69995 24.8 8.38996 26.49 10.46 26.49H22.4C24.47 26.49 26.1599 24.8 26.1599 22.73V10.79C26.1599 8.72004 24.47 7.03003 22.4 7.03003ZM23.4799 9.27002H23.9099V9.69995V12.5701H20.6199L20.6099 9.28003H23.4799V9.27002ZM13.65 14.76C14.27 13.9 15.2799 13.3301 16.4299 13.3301C17.5799 13.3301 18.58 13.89 19.21 14.76C19.29 14.86 19.3499 14.9701 19.4199 15.0901C19.6999 15.5801 19.8599 16.15 19.8599 16.76C19.8599 18.65 18.3199 20.1799 16.4299 20.1799C14.5399 20.1799 12.9999 18.64 12.9999 16.76C12.9999 16.15 13.1599 15.5801 13.4399 15.0901C13.4999 14.9801 13.57 14.87 13.65 14.76ZM24.2599 22.73C24.2599 23.76 23.42 24.5901 22.39 24.5901H10.45C9.41995 24.5901 8.58997 23.75 8.58997 22.73V14.76H11.4899C11.4199 14.94 11.3599 15.1201 11.2999 15.3101C11.1699 15.7701 11.0999 16.26 11.0999 16.76C11.0999 19.69 13.4899 22.0801 16.4199 22.0801C19.3499 22.0801 21.7399 19.69 21.7399 16.76C21.7399 16.26 21.6699 15.7701 21.5399 15.3101C21.4899 15.1201 21.4199 14.94 21.3499 14.76H24.2599V22.73Z" fill="white"/>
</svg>
