<svg viewBox="0 0 28 18" fill="none" xmlns="http://www.w3.org/2000/svg">
    <path d="M27.3901 14.63C27.3601 15.28 27.2701 15.9301 27.0601 16.5501C26.7001 17.5801 26.1101 17.9 25.0501 17.63C24.3101 17.44 23.6601 17.06 23.0401 16.64C22.0401 15.98 21.1401 15.19 20.2601 14.38C19.1701 13.37 17.8501 12.87 16.4201 12.57C15.3501 12.34 14.2601 12.28 13.1701 12.35C11.3901 12.46 9.69011 12.86 8.18011 13.87C7.59011 14.26 7.10011 14.78 6.56011 15.23C5.58011 16.05 4.60009 16.86 3.41009 17.36C3.16009 17.46 2.90007 17.55 2.64007 17.61C1.77007 17.82 1.14002 17.45 0.840021 16.6C0.530021 15.71 0.480045 14.79 0.490045 13.86C0.560045 10.73 1.14004 7.70997 2.36004 4.81997C2.81004 3.75997 3.39007 2.77001 4.27007 1.98001C5.21007 1.13001 6.32009 0.870036 7.54009 1.01004C8.86009 1.16004 10.1401 1.54002 11.4201 1.87002C13.1801 2.33002 14.9101 2.27998 16.6601 1.82998C17.7501 1.54998 18.84 1.26998 19.95 1.07998C22.2 0.709982 23.6301 1.53002 24.7901 3.37002C25.7801 4.95002 26.32 6.70003 26.73 8.50003C27.19 10.52 27.4801 12.55 27.4001 14.63H27.3901ZM9.41009 5.27005C9.29009 5.25005 9.21011 5.22008 9.18011 5.06008C9.03011 4.11008 8.19006 3.32005 7.13006 3.27005C6.16006 3.23005 5.11002 4.00998 4.96002 4.94998C4.93002 5.16998 4.84007 5.23005 4.64007 5.27005C4.02007 5.39005 3.53003 5.72005 3.22003 6.27005C2.46003 7.63005 3.19004 9.17002 4.73004 9.49002C4.87004 9.52002 4.92 9.56999 4.94 9.70999C5.1 10.69 6.00005 11.46 7.00005 11.47C8.03006 11.48 8.99008 10.72 9.15008 9.72C9.18008 9.55 9.23007 9.51001 9.39007 9.48001C10.4101 9.27001 11.1301 8.40005 11.1301 7.40005C11.1301 6.34005 10.4101 5.46005 9.38006 5.27005H9.41009ZM9.21002 8.12002C8.97002 8.15002 8.73005 8.15007 8.49005 8.17007C8.11005 8.20007 7.87003 8.47 7.85003 8.85C7.85003 9.06 7.87 9.27001 7.82 9.48001C7.71 9.92001 7.41 10.13 6.94 10.08C6.57 10.04 6.30009 9.72997 6.29009 9.31997C6.29009 9.22997 6.29009 9.15008 6.29009 9.06008C6.29009 8.34008 6.06003 8.1 5.35003 8.1C5.25003 8.1 5.16011 8.1 5.06011 8.1C4.85011 8.09 4.67007 8.02002 4.52007 7.87002C4.30007 7.63002 4.26004 7.35997 4.36004 7.06997C4.48004 6.74997 4.74011 6.63 5.06011 6.6C5.30011 6.58 5.54008 6.63007 5.78008 6.55008C6.09008 6.45008 6.28009 6.21004 6.29009 5.89004C6.29009 5.71004 6.29009 5.51999 6.29009 5.33999C6.31009 4.92999 6.59005 4.64 7.00005 4.6C7.41005 4.56 7.71011 4.8 7.81011 5.22C7.86011 5.44 7.84003 5.66003 7.85003 5.88003C7.87003 6.29003 8.16 6.58 8.57 6.6C8.76 6.6 8.96008 6.6 9.15008 6.6C9.53008 6.63 9.81 6.93008 9.82 7.30008C9.84 7.74008 9.61002 8.05001 9.21002 8.11001V8.12002ZM20.3801 6.03006C21.1101 6.03006 21.6501 5.48003 21.6501 4.75003C21.6501 4.02003 21.1001 3.46999 20.3801 3.45999C19.6601 3.45999 19.08 4.03004 19.08 4.76004C19.08 5.48004 19.6501 6.03006 20.3701 6.03006H20.3801ZM17.74 6.07998C17.04 6.07998 16.45 6.66001 16.45 7.36001C16.45 8.05001 17.05 8.66006 17.74 8.66006C18.44 8.66006 19.0401 8.07003 19.0401 7.38003C19.0401 6.65003 18.47 6.07998 17.74 6.07998ZM23.0001 6.07998C22.2901 6.07998 21.72 6.65001 21.71 7.36001C21.71 8.07001 22.28 8.65005 22.98 8.65005C23.69 8.65005 24.2901 8.06 24.2901 7.35C24.2901 6.64 23.71 6.06997 22.99 6.06997L23.0001 6.07998ZM20.3701 8.69998C19.68 8.69998 19.09 9.29002 19.09 9.99002C19.09 10.69 19.67 11.2801 20.3701 11.2901C21.08 11.2901 21.6601 10.71 21.6601 9.98001C21.6601 9.27001 21.08 8.69998 20.3701 8.69998Z" fill="currentColor"/>
</svg>
