<svg viewBox="0 0 79 39" fill="none" xmlns="http://www.w3.org/2000/svg">
    <path d="M73.01 0.310059H5.55005C2.48487 0.310059 0 2.79493 0 5.86011V32.6201C0 35.6852 2.48487 38.1701 5.55005 38.1701H73.01C76.0752 38.1701 78.56 35.6852 78.56 32.6201V5.86011C78.56 2.79493 76.0752 0.310059 73.01 0.310059Z" fill="#EB1068"/>
    <path d="M22.64 5H27.04V29H34.28V33H22.64V5ZM36.39 5H40.79V33H36.39V5ZM42.9253 5H47.3653L50.2453 26.72H50.3253L53.2053 5H57.2453L53.0053 33H47.1653L42.9253 5ZM59.3588 5H71.3588V9H63.7588V16.4H69.7988V20.4H63.7588V29H71.3588V33H59.3588V5Z" fill="white"/>
    <path d="M10.8701 23.5099C13.3774 23.5099 15.4101 21.4773 15.4101 18.9699C15.4101 16.4625 13.3774 14.4299 10.8701 14.4299C8.36268 14.4299 6.33008 16.4625 6.33008 18.9699C6.33008 21.4773 8.36268 23.5099 10.8701 23.5099Z" fill="white"/>
</svg>
