<svg  viewBox="0 0 21 26" fill="none" xmlns="http://www.w3.org/2000/svg">
    <path d="M20.63 10.1199C20.63 4.70994 16.23 0.269984 10.85 0.289984C5.43002 0.309984 1.10999 4.64 1.06999 10.06C1.02999 15.52 5.44004 19.91 10.87 19.91C16.22 19.91 20.62 15.4899 20.63 10.1199ZM15.9101 9.22993C15.3101 9.79993 14.7301 10.3799 14.13 10.9599C14.03 11.0499 14.0001 11.13 14.0301 11.28C14.1901 12.11 14.33 12.95 14.47 13.79C14.52 14.11 14.4301 14.3899 14.1701 14.5999C13.9001 14.8099 13.6001 14.84 13.3001 14.67C12.5501 14.27 11.7901 13.8799 11.0401 13.4799C10.9101 13.4099 10.8101 13.4099 10.6801 13.4799C9.9201 13.8799 9.16006 14.29 8.39006 14.67C7.83006 14.94 7.23002 14.55 7.23002 13.89C7.30002 13.46 7.38001 12.9799 7.46001 12.4999C7.53001 12.0699 7.60999 11.6499 7.68999 11.2299C7.71999 11.0899 7.63999 11.0299 7.56999 10.9599C6.99999 10.3999 6.43002 9.82998 5.85002 9.27997C5.56002 9.00997 5.39007 8.71 5.53007 8.31C5.66007 7.94 5.96001 7.81996 6.34001 7.76996C7.14001 7.66996 7.93002 7.52999 8.73002 7.41999C8.88002 7.39999 8.94004 7.33991 9.00004 7.20991C9.37004 6.45991 9.74003 5.71992 10.11 4.96992C10.26 4.64992 10.5 4.46992 10.86 4.46992C11.21 4.46992 11.45 4.65992 11.61 4.96992C11.97 5.70992 12.34 6.44989 12.71 7.18989C12.77 7.31989 12.83 7.38999 12.99 7.41999C13.81 7.52999 14.6201 7.65997 15.4301 7.77997C15.7901 7.82997 16.0601 7.97989 16.1801 8.31989C16.3101 8.66989 16.1801 8.97993 15.9201 9.22993H15.9101ZM7.42009 21.17C5.84009 20.68 4.44001 19.89 3.21001 18.79C3.00001 18.61 2.94002 18.67 2.85002 18.8799C2.23002 20.3099 1.60002 21.73 0.970015 23.15C0.920015 23.27 0.83002 23.38 0.85002 23.55C1.72002 23.26 2.57009 22.9699 3.42009 22.6899C3.91009 22.5299 4.33009 22.72 4.55009 23.18C4.67009 23.45 4.79007 23.7199 4.90007 23.9899C5.14007 24.5499 5.38004 25.1 5.62004 25.66C5.66004 25.64 5.67009 25.64 5.67009 25.64C6.30009 24.23 6.92009 22.82 7.55009 21.41C7.63009 21.24 7.53008 21.2 7.41008 21.17H7.42009ZM18.71 18.5999C17.38 19.8099 15.91 20.67 14.23 21.18C14.05 21.23 14.0901 21.31 14.1401 21.43C14.4701 22.19 14.8001 22.9499 15.1401 23.6999C15.4301 24.3599 15.7201 25.0099 16.0301 25.6999C16.0701 25.6199 16.1 25.58 16.12 25.54C16.45 24.77 16.78 23.9999 17.12 23.2399C17.37 22.6799 17.77 22.5099 18.34 22.6999C19.17 22.9799 19.9901 23.2599 20.9101 23.5699C20.1601 21.8599 19.44 20.2399 18.71 18.5799V18.5999Z" fill="currentColor"/>
</svg>
