<svg viewBox="0 0 27 27" fill="none" xmlns="http://www.w3.org/2000/svg">
    <path d="M13.62 26.11C20.5954 26.11 26.25 20.4553 26.25 13.48C26.25 6.50462 20.5954 0.849976 13.62 0.849976C6.64464 0.849976 0.98999 6.50462 0.98999 13.48C0.98999 20.4553 6.64464 26.11 13.62 26.11Z" stroke="url(#paint0_linear_0_1)" stroke-miterlimit="10"/>
    <path d="M21.0399 12.8599L10.4699 6.97994C10.3599 6.91994 10.2299 6.92996 10.1299 6.99996C10.0299 7.06996 9.95996 7.19992 9.95996 7.32992V19.0899C9.95996 19.2299 10.0199 19.35 10.1299 19.42C10.1899 19.46 10.2499 19.4799 10.3199 19.4799C10.3699 19.4799 10.4299 19.4699 10.4799 19.4399L21.0499 13.56C21.1699 13.49 21.2399 13.3599 21.2399 13.2099C21.2399 13.0599 21.1599 12.9299 21.0499 12.8599H21.0399ZM10.6599 18.4499V7.95992L20.09 13.2099L10.6599 18.4599V18.4499Z" fill="black"/>
    <defs>
        <linearGradient id="paint0_linear_0_1" x1="-890" y1="25.62" x2="18.62" y2="1.32996" gradientUnits="userSpaceOnUse">
            <stop/>
            <stop offset="1"/>
        </linearGradient>
    </defs>
</svg>
