<svg viewBox="0 0 34 34" fill="none" xmlns="http://www.w3.org/2000/svg">
    <path d="M33.61 16.76C33.61 25.83 26.25 33.1899 17.18 33.1899C8.10999 33.1899 0.75 25.83 0.75 16.76C0.75 7.69001 8.10999 0.330078 17.18 0.330078C26.25 0.330078 33.61 7.69001 33.61 16.76Z" fill="#E81068"/>
    <path d="M26.9099 11.75C26.1899 12.06 25.4299 12.2701 24.6199 12.3701C25.4499 11.8801 26.0799 11.11 26.3799 10.2C25.6099 10.65 24.75 10.9799 23.84 11.1499C23.11 10.3899 22.0699 9.90991 20.9299 9.90991C18.7299 9.90991 16.9399 11.6701 16.9399 13.8401C16.9399 14.1501 16.9799 14.45 17.0399 14.74C13.7199 14.58 10.7799 13.0099 8.80994 10.6299C8.46994 11.2099 8.26996 11.8901 8.26996 12.6101C8.26996 13.9701 8.97993 15.1799 10.0499 15.8799C9.39993 15.8599 8.77993 15.6799 8.23993 15.3899V15.4399C8.23993 15.9399 8.33995 16.4201 8.50995 16.8601C8.99995 18.0901 10.0999 19.02 11.4399 19.29C11.0999 19.38 10.75 19.4299 10.39 19.4299C10.13 19.4299 9.87995 19.4101 9.63995 19.3601C10.15 20.9201 11.6199 22.0601 13.3699 22.0901C11.9999 23.1501 10.2799 23.77 8.40991 23.77C8.08991 23.77 7.76996 23.75 7.45996 23.72C9.22996 24.83 11.33 25.49 13.58 25.49C19.82 25.49 23.6599 21.1699 24.6699 16.6799C24.8499 15.8899 24.9399 15.0901 24.9399 14.3101C24.9399 14.1401 24.9399 13.97 24.9299 13.8C25.7099 13.25 26.3899 12.55 26.9199 11.77L26.9099 11.75Z" fill="white"/>
</svg>
