<svg viewBox="0 0 18 18" fill="none" xmlns="http://www.w3.org/2000/svg">
    <path d="M8.84 16.79C7.99 16.56 7.29001 16.27 6.76001 15.9L8.04001 13.47C8.62001 13.84 9.24001 14.1201 9.89001 14.3101C10.55 14.5001 11.2 14.6 11.86 14.6C12.52 14.6 12.97 14.51 13.31 14.33C13.65 14.15 13.83 13.9 13.83 13.58C13.83 13.31 13.67 13.0899 13.36 12.9399C13.05 12.7899 12.56 12.62 11.91 12.45C11.17 12.25 10.55 12.05 10.06 11.85C9.57 11.65 9.14001 11.34 8.79001 10.92C8.43001 10.5 8.26001 9.96003 8.26001 9.28003C8.26001 8.46003 8.47999 7.74 8.92999 7.12C9.37999 6.5 10.02 6.01994 10.85 5.68994C11.68 5.34994 12.65 5.18005 13.77 5.18005C14.59 5.18005 15.35 5.26005 16.07 5.43005C16.78 5.60005 17.39 5.84003 17.91 6.16003L16.73 8.56995C16.28 8.28995 15.79 8.07004 15.25 7.92004C14.71 7.77004 14.15 7.69995 13.59 7.69995C12.95 7.69995 12.44 7.80001 12.07 8.01001C11.7 8.22001 11.52 8.49006 11.52 8.81006C11.52 9.09006 11.68 9.30997 12 9.46997C12.32 9.61997 12.81 9.78996 13.48 9.95996C14.22 10.15 14.84 10.34 15.32 10.53C15.81 10.73 16.22 11.0301 16.57 11.4301C16.92 11.8301 17.09 12.36 17.09 13.02C17.09 13.83 16.86 14.54 16.41 15.16C15.96 15.78 15.31 16.26 14.48 16.59C13.64 16.93 12.67 17.1 11.57 17.1C10.62 17.1 9.72 16.99 8.87 16.76L8.84 16.79Z" fill="url(#paint0_linear_6_472)"/>
    <path d="M13.5701 0.26001L6.38007 11.74H3.18005L0.570068 0.26001H3.90005L5.54007 7.71997L10.2301 0.26001H13.5701Z" fill="url(#paint1_linear_6_472)"/>
    <defs>
        <linearGradient id="paint0_linear_6_472" x1="6.76001" y1="11.16" x2="17.89" y2="11.16" gradientUnits="userSpaceOnUse">
            <stop offset="0.03" stop-color="#00002C"/>
            <stop offset="0.25" stop-color="#264487"/>
            <stop offset="0.36" stop-color="#0162AB"/>
            <stop offset="0.46" stop-color="#0669B0"/>
            <stop offset="0.6" stop-color="#167DBE"/>
            <stop offset="0.77" stop-color="#2F9ED5"/>
            <stop offset="0.93" stop-color="#4EC5F1"/>
        </linearGradient>
        <linearGradient id="paint1_linear_6_472" x1="0.570068" y1="6" x2="13.5701" y2="6" gradientUnits="userSpaceOnUse">
            <stop stop-color="#870039"/>
            <stop offset="0.25" stop-color="#D0085C"/>
            <stop offset="0.65" stop-color="#E91067"/>
            <stop offset="0.72" stop-color="#E9176B"/>
            <stop offset="0.83" stop-color="#E92B78"/>
            <stop offset="0.95" stop-color="#EA4C8C"/>
            <stop offset="1" stop-color="#EB5B96"/>
        </linearGradient>
    </defs>
</svg>
