<svg viewBox="0 0 99 96" fill="none" xmlns="http://www.w3.org/2000/svg">
    <path d="M47.1599 93.35C42.3599 92.06 38.4499 90.4 35.4299 88.36L42.6299 74.6901C45.8899 76.7801 49.3699 78.3701 53.0599 79.4501C56.7499 80.5301 60.45 81.0701 64.14 81.0701C67.83 81.0701 70.3699 80.56 72.3099 79.55C74.2499 78.53 75.2199 77.13 75.2199 75.35C75.2199 73.81 74.34 72.6101 72.59 71.7501C70.83 70.8901 68.1099 69.97 64.4199 68.98C60.2299 67.87 56.7599 66.75 53.9899 65.61C51.2199 64.47 48.83 62.7301 46.83 60.3901C44.83 58.0501 43.83 54.97 43.83 51.16C43.83 46.54 45.0899 42.5001 47.6199 39.0201C50.1399 35.5401 53.7399 32.8501 58.4199 30.9401C63.0999 29.0301 68.5799 28.0801 74.8599 28.0801C79.4799 28.0801 83.7799 28.5601 87.7899 29.5101C91.7899 30.4701 95.2399 31.8301 98.1299 33.6201L91.4799 47.1901C88.9599 45.5901 86.1699 44.37 83.1199 43.54C80.0699 42.71 76.9499 42.29 73.7499 42.29C70.1199 42.29 67.27 42.88 65.21 44.04C63.15 45.21 62.1199 46.7201 62.1199 48.5601C62.1199 50.1601 63.0099 51.3901 64.7999 52.2501C66.5799 53.1101 69.3499 54.0401 73.1099 55.0201C77.2999 56.0701 80.7599 57.1401 83.4999 58.2501C86.2399 59.3601 88.5899 61.0501 90.5599 63.3301C92.5299 65.6101 93.5099 68.59 93.5099 72.29C93.5099 76.85 92.2299 80.8601 89.6799 84.3401C87.1199 87.8201 83.49 90.51 78.78 92.42C74.07 94.33 68.61 95.2801 62.39 95.2801C57.04 95.2801 51.96 94.6301 47.15 93.3401L47.1599 93.35Z" fill="url(#paint0_linear_0_1)"/>
    <path d="M73.83 0.27002L33.3 64.91H15.29L0.609985 0.27002H19.35L28.59 42.29L55 0.27002H73.83Z" fill="url(#paint1_linear_0_1)"/>
    <defs>
        <linearGradient id="paint0_linear_0_1" x1="35.4399" y1="61.6801" x2="98.1299" y2="61.6801" gradientUnits="userSpaceOnUse">
            <stop offset="0.03" stop-color="#00002C"/>
            <stop offset="0.25" stop-color="#26448A"/>
            <stop offset="0.36" stop-color="#0162AE"/>
            <stop offset="0.46" stop-color="#0669B2"/>
            <stop offset="0.59" stop-color="#157DC0"/>
            <stop offset="0.76" stop-color="#2E9ED7"/>
            <stop offset="0.93" stop-color="#4EC8F4"/>
        </linearGradient>
        <linearGradient id="paint1_linear_0_1" x1="0.609985" y1="32.59" x2="73.83" y2="32.59" gradientUnits="userSpaceOnUse">
            <stop stop-color="#8A0039"/>
            <stop offset="0.25" stop-color="#D3085C"/>
            <stop offset="0.65" stop-color="#EC1067"/>
            <stop offset="0.72" stop-color="#EC176B"/>
            <stop offset="0.83" stop-color="#EC2B79"/>
            <stop offset="0.95" stop-color="#ED4C8F"/>
            <stop offset="1" stop-color="#EE5B99"/>
        </linearGradient>
    </defs>
</svg>
