<svg viewBox="0 0 34 34" fill="none" xmlns="http://www.w3.org/2000/svg">
    <path d="M33.35 16.76C33.35 25.83 25.99 33.1899 16.92 33.1899C7.85004 33.1899 0.48999 25.83 0.48999 16.76C0.48999 7.69001 7.85004 0.330078 16.92 0.330078C25.99 0.330078 33.35 7.69001 33.35 16.76Z" fill="#E81068"/>
    <path fill-rule="evenodd" clip-rule="evenodd" d="M23.96 9.5C22.1 7.64 19.62 6.61011 16.99 6.61011C11.56 6.61011 7.14 11.03 7.13 16.47C7.13 18.21 7.57995 19.8999 8.44995 21.3999L7.05005 26.51L12.28 25.1399C13.72 25.9299 15.34 26.3401 16.99 26.3401C22.42 26.3401 26.84 21.92 26.85 16.48C26.85 13.85 25.83 11.37 23.97 9.51001L23.96 9.5ZM16.99 24.6699C15.52 24.6699 14.0799 24.27 12.8199 23.53L12.52 23.3501L9.42004 24.1599L10.25 21.1399L10.0601 20.8301C9.24006 19.5301 8.81006 18.02 8.81006 16.47C8.81006 11.95 12.49 8.28003 17.01 8.28003C19.2 8.28003 21.26 9.12993 22.8 10.6799C24.35 12.2299 25.2 14.29 25.2 16.48C25.2 21 21.52 24.6699 17.01 24.6699H16.99ZM21.49 18.53C21.24 18.41 20.0301 17.81 19.8101 17.73C19.5801 17.65 19.42 17.6101 19.26 17.8501C19.1 18.1001 18.62 18.6501 18.48 18.8201C18.34 18.9801 18.19 19.0099 17.95 18.8799C17.7 18.7599 16.91 18.4999 15.97 17.6599C15.24 17.0099 14.74 16.2 14.6 15.95C14.46 15.7 14.6 15.58 14.71 15.45C14.98 15.12 15.24 14.7701 15.33 14.6101C15.41 14.4501 15.3701 14.2999 15.3101 14.1799C15.2501 14.0599 14.76 12.8401 14.55 12.3501C14.35 11.8701 14.15 11.9299 14 11.9299C13.86 11.9299 13.69 11.9299 13.53 11.9299C13.37 11.9299 13.1 11.99 12.87 12.24C12.64 12.49 12.01 13.08 12.01 14.29C12.01 15.5 12.89 16.6701 13.02 16.8401C13.15 17.0101 14.76 19.4901 17.23 20.5601C17.82 20.8101 18.28 20.9701 18.63 21.0801C19.22 21.2701 19.7601 21.2399 20.1801 21.1799C20.6501 21.1099 21.64 20.58 21.84 20.01C22.05 19.43 22.05 18.9401 21.98 18.8401C21.92 18.7401 21.75 18.68 21.51 18.55L21.49 18.53Z" fill="white"/>
</svg>
